<svg viewBox="0 0 99 119" fill="none" xmlns="http://www.w3.org/2000/svg">
<path d="M98.706 5.48999C98.706 2.40099 96.433 -0.104004 93.628 -0.104004H5.04C2.236 -0.104004 -0.0379944 2.40099 -0.0379944 5.48999V114.308C-0.0379944 117.398 2.236 119.902 5.04 119.902H93.628C96.433 119.902 98.706 117.398 98.706 114.308V5.48999Z" fill="#72913C"/>
<path d="M49.309 3.14001C49.309 3.14001 49.309 3.23902 49.309 3.40102C49.315 3.23402 49.309 3.14001 49.309 3.14001Z" fill="white"/>
<path d="M88.612 22.458C79.179 23.426 70.194 22.077 61.803 17.532C52.465 12.472 49.969 7.41698 49.308 4.85898C49.308 4.16798 49.308 3.67398 49.308 3.40198C49.301 3.60798 49.274 3.92798 49.192 4.35098C49.109 3.92798 49.083 3.60698 49.076 3.40198C49.076 3.67398 49.076 4.16698 49.076 4.85898C48.415 7.41698 45.92 12.473 36.581 17.532C28.191 22.077 19.205 23.427 9.772 22.458C9.191 22.398 8.365 41.637 8.381 43.392C8.599 66.981 21.162 90.11 38.21 105.873C40.689 108.165 43.238 110.385 45.803 112.581C46.121 112.854 48.339 114.337 49.072 115.139C49.072 115.387 49.072 115.525 49.072 115.525C49.072 115.463 49.117 115.378 49.192 115.28C49.266 115.378 49.312 115.463 49.312 115.525C49.312 115.525 49.312 115.386 49.312 115.139C50.045 114.337 52.262 112.854 52.581 112.581C55.146 110.385 57.695 108.165 60.174 105.873C77.222 90.11 89.785 66.981 90.003 43.392C90.019 41.636 89.193 22.398 88.612 22.458Z" fill="white"/>
<path d="M49.077 3.40102C49.077 3.23802 49.077 3.14001 49.077 3.14001C49.077 3.14001 49.07 3.23402 49.077 3.40102Z" fill="white"/>
<path d="M31.667 69.7979L36.333 58.1769L44 69.7979L66.333 29.9089L71 38.9919L45 80.0249L31.667 69.7979Z" fill="#72913C"/>
</svg>
