<?xml version="1.0" encoding="utf-8"?>
<!-- Generator: Adobe Illustrator 15.0.0, SVG Export Plug-In . SVG Version: 6.00 Build 0)  -->
<!DOCTYPE svg PUBLIC "-//W3C//DTD SVG 1.1//EN" "http://www.w3.org/Graphics/SVG/1.1/DTD/svg11.dtd">
<svg version="1.1" id="Layer_1" xmlns="http://www.w3.org/2000/svg" xmlns:xlink="http://www.w3.org/1999/xlink" x="0px" y="0px"
	  viewBox="0 0 108 108" enable-background="new 0 0 108 108" xml:space="preserve">
<path fill="#72913C" d="M84.585,7.168c0-2.543-1.872-4.605-4.18-4.605H7.476c-2.308,0-4.181,2.062-4.181,4.605v89.583
	c0,2.545,1.873,4.606,4.181,4.606h72.93c2.308,0,4.18-2.062,4.18-4.606V7.168z"/>
<g>
	<path fill="#FFFFFF" d="M43.919,5.233c0,0,0,0.081,0,0.215C43.925,5.311,43.919,5.233,43.919,5.233z"/>
	<path fill="#FFFFFF" d="M76.275,21.137c-7.764,0.797-15.163-0.313-22.069-4.056c-7.688-4.165-9.742-8.327-10.287-10.434
		c0-0.569,0-0.975,0-1.199c-0.006,0.169-0.028,0.433-0.096,0.781c-0.067-0.348-0.09-0.612-0.095-0.781c0,0.224,0,0.63,0,1.199
		c-0.544,2.106-2.599,6.269-10.286,10.434c-6.908,3.742-14.305,4.853-22.07,4.056c-0.478-0.049-1.158,15.789-1.145,17.233
		c0.18,19.419,10.521,38.461,24.556,51.438c2.041,1.887,4.14,3.715,6.25,5.522c0.262,0.224,2.087,1.444,2.692,2.105
		c0,0.203,0,0.317,0,0.317c0-0.052,0.037-0.121,0.098-0.201c0.062,0.08,0.099,0.149,0.099,0.201c0,0,0-0.114,0-0.317
		c0.603-0.661,2.428-1.882,2.691-2.105c2.112-1.808,4.21-3.636,6.251-5.522C66.9,76.831,77.242,57.789,77.42,38.37
		C77.435,36.925,76.754,21.087,76.275,21.137z"/>
	<path fill="#FFFFFF" d="M43.729,5.449c0-0.134,0-0.215,0-0.215S43.723,5.311,43.729,5.449z"/>
</g>
<polygon fill="#72913C" points="29.396,60.11 33.238,50.542 39.549,60.11 57.936,27.271 61.776,34.749 40.372,68.529 "/>
</svg>
