<?xml version="1.0" encoding="utf-8"?>
<!-- Generator: Adobe Illustrator 15.0.0, SVG Export Plug-In . SVG Version: 6.00 Build 0)  -->
<!DOCTYPE svg PUBLIC "-//W3C//DTD SVG 1.1//EN" "http://www.w3.org/Graphics/SVG/1.1/DTD/svg11.dtd">
<svg version="1.1" xmlns="http://www.w3.org/2000/svg" xmlns:xlink="http://www.w3.org/1999/xlink" x="0px" y="0px" width="792px"
	 height="612px" viewBox="0 0 792 612" enable-background="new 0 0 792 612" xml:space="preserve">
<g id="back">
</g>
<g id="Layer_1">
	<path fill="#72913C" d="M153.706,69.49c0-3.089-2.273-5.594-5.078-5.594H60.04c-2.804,0-5.078,2.505-5.078,5.594v108.818
		c0,3.09,2.274,5.594,5.078,5.594h88.588c2.805,0,5.078-2.504,5.078-5.594V69.49z"/>
	<g>
		<path fill="#FFFFFF" d="M104.309,67.14c0,0,0,0.099,0,0.261C104.315,67.234,104.309,67.14,104.309,67.14z"/>
		<path fill="#FFFFFF" d="M143.612,86.458c-9.433,0.968-18.418-0.381-26.809-4.926c-9.338-5.06-11.834-10.115-12.495-12.673
			c0-0.691,0-1.185,0-1.457c-0.007,0.206-0.034,0.526-0.116,0.949c-0.083-0.423-0.109-0.744-0.116-0.949c0,0.272,0,0.765,0,1.457
			c-0.661,2.558-3.156,7.614-12.495,12.673c-8.39,4.545-17.376,5.895-26.809,4.926c-0.581-0.06-1.407,19.179-1.391,20.934
			c0.218,23.589,12.781,46.718,29.829,62.481c2.479,2.292,5.028,4.512,7.593,6.708c0.318,0.273,2.536,1.756,3.269,2.558
			c0,0.248,0,0.386,0,0.386c0-0.062,0.045-0.147,0.12-0.245c0.074,0.098,0.12,0.183,0.12,0.245c0,0,0-0.139,0-0.386
			c0.733-0.802,2.95-2.285,3.269-2.558c2.565-2.196,5.114-4.416,7.593-6.708c17.048-15.763,29.611-38.892,29.829-62.481
			C145.019,105.636,144.193,86.398,143.612,86.458z"/>
		<path fill="#FFFFFF" d="M104.077,67.401c0-0.163,0-0.261,0-0.261S104.07,67.234,104.077,67.401z"/>
	</g>
	<polygon fill="#72913C" points="86.667,133.798 91.333,122.177 99,133.798 121.333,93.909 126,102.992 100,144.025 	"/>
</g>
<g id="text">
</g>
</svg>
