<?xml version="1.0" encoding="utf-8"?>
<!-- Generator: Adobe Illustrator 15.0.0, SVG Export Plug-In . SVG Version: 6.00 Build 0)  -->
<!DOCTYPE svg PUBLIC "-//W3C//DTD SVG 1.1//EN" "http://www.w3.org/Graphics/SVG/1.1/DTD/svg11.dtd">
<svg version="1.1" xmlns="http://www.w3.org/2000/svg" xmlns:xlink="http://www.w3.org/1999/xlink" x="0px" y="0px" width="792px"
	 height="612px" viewBox="0 0 792 612" enable-background="new 0 0 792 612" xml:space="preserve">
<g id="back">
</g>
<g id="Layer_1">
	<g>
		<path fill="#72913C" d="M454.081,523.216h-5.838l-6.207,14.062l-0.692-8.331c0.96-0.357,1.667-1.511,1.667-2.894
			c0-1.67-1.022-3.021-2.284-3.021h-1.186c-1.261,0-2.283,1.351-2.283,3.021c0,1.383,0.707,2.536,1.666,2.894l-0.691,8.33
			l-6.207-14.061h-5.84c-3.298,0-5.972,3.443-5.972,7.691v23.151h39.841v-23.151C460.055,526.659,457.381,523.216,454.081,523.216z"
			/>
		<polygon fill="#72913C" points="480.648,522.898 469.46,513.016 458.271,522.898 464.207,522.898 464.207,527.448 
			475.402,527.448 475.402,522.898 		"/>
		<path fill="#72913C" stroke="#FFFFFF" stroke-width="2" stroke-miterlimit="10" d="M462.593,552.827
			c0,0.993-0.805,1.798-1.797,1.798h-5.142c-0.993,0-1.798-0.805-1.798-1.798v-14.749c0-0.993,0.805-1.798,1.798-1.798h5.142
			c0.992,0,1.797,0.805,1.797,1.798V552.827z"/>
		<path fill="#72913C" d="M474.935,552.358c0,1.252-0.805,2.267-1.796,2.267h-5.144c-0.992,0-1.797-1.015-1.797-2.267v-18.604
			c0-1.252,0.805-2.267,1.797-2.267h5.144c0.991,0,1.796,1.015,1.796,2.267V552.358z"/>
		<path fill="#72913C" d="M487.244,551.745c0,1.591-0.805,2.88-1.797,2.88h-5.142c-0.993,0-1.798-1.289-1.798-2.88v-23.638
			c0-1.59,0.805-2.879,1.798-2.879h5.142c0.992,0,1.797,1.289,1.797,2.879V551.745z"/>
		<circle fill="#72913C" cx="440.134" cy="509.041" r="12.468"/>
	</g>
</g>
<g id="text">
</g>
</svg>
