<svg viewBox="0 0 68 60" fill="none" xmlns="http://www.w3.org/2000/svg">
<path d="M34.0809 27.216H28.2429L22.0359 41.278L21.3439 32.947C22.3039 32.59 23.0109 31.436 23.0109 30.053C23.0109 28.383 21.9889 27.032 20.7269 27.032H19.5409C18.2799 27.032 17.2579 28.383 17.2579 30.053C17.2579 31.436 17.9649 32.589 18.9239 32.947L18.2329 41.277L12.0259 27.216H6.18588C2.88788 27.216 0.213867 30.659 0.213867 34.907V58.058H40.0549V34.907C40.0549 30.659 37.3809 27.216 34.0809 27.216Z" fill="#72913C"/>
<path d="M60.648 26.898L49.46 17.016L38.271 26.898H44.207V31.448H55.402V26.898H60.648Z" fill="#72913C"/>
<path d="M42.593 56.827C42.593 57.82 41.788 58.625 40.796 58.625H35.654C34.661 58.625 33.856 57.82 33.856 56.827V42.078C33.856 41.085 34.661 40.28 35.654 40.28H40.796C41.788 40.28 42.593 41.085 42.593 42.078V56.827Z" fill="#72913C" stroke="white" stroke-width="2" stroke-miterlimit="10"/>
<path d="M54.9348 56.358C54.9348 57.61 54.1298 58.625 53.1388 58.625H47.9948C47.0028 58.625 46.1978 57.61 46.1978 56.358V37.754C46.1978 36.502 47.0028 35.487 47.9948 35.487H53.1388C54.1298 35.487 54.9348 36.502 54.9348 37.754V56.358Z" fill="#72913C"/>
<path d="M67.2438 55.745C67.2438 57.336 66.4388 58.625 65.4468 58.625H60.3048C59.3118 58.625 58.5068 57.336 58.5068 55.745V32.107C58.5068 30.517 59.3118 29.228 60.3048 29.228H65.4468C66.4388 29.228 67.2438 30.517 67.2438 32.107V55.745Z" fill="#72913C"/>
<path d="M20.1338 25.509C27.0197 25.509 32.6018 19.9269 32.6018 13.041C32.6018 6.1551 27.0197 0.572998 20.1338 0.572998C13.2479 0.572998 7.66577 6.1551 7.66577 13.041C7.66577 19.9269 13.2479 25.509 20.1338 25.509Z" fill="#72913C"/>
</svg>
