<?xml version="1.0" encoding="utf-8"?>
<!-- Generator: Adobe Illustrator 15.0.0, SVG Export Plug-In . SVG Version: 6.00 Build 0)  -->
<!DOCTYPE svg PUBLIC "-//W3C//DTD SVG 1.1//EN" "http://www.w3.org/Graphics/SVG/1.1/DTD/svg11.dtd">
<svg version="1.1" xmlns="http://www.w3.org/2000/svg" xmlns:xlink="http://www.w3.org/1999/xlink" x="0px" y="0px" viewBox="0 0 108 108" enable-background="new 0 0 108 108" xml:space="preserve">
<g id="Layer_2">
</g>
<g id="Layer_1">
	<rect x="2.667" y="2" fill="#FFFFFF" fill-opacity="0" width="72.333" height="61.666"/>
	<g>
		<path fill="#72913C" d="M39.415,30.549h-5.838L27.37,44.61l-0.692-8.331c0.96-0.357,1.667-1.511,1.667-2.894
			c0-1.67-1.022-3.021-2.284-3.021h-1.186c-1.261,0-2.283,1.351-2.283,3.021c0,1.383,0.707,2.536,1.666,2.894l-0.691,8.33
			l-6.207-14.061h-5.84c-3.298,0-5.972,3.443-5.972,7.691v23.151h39.841V38.24C45.388,33.992,42.714,30.549,39.415,30.549z"/>
		<polygon fill="#72913C" points="65.982,30.231 54.793,20.349 43.604,30.231 49.541,30.231 49.541,34.781 60.736,34.781 
			60.736,30.231 		"/>
		<path fill="#72913C" stroke="#FFFFFF" stroke-width="2" stroke-miterlimit="10" d="M47.926,60.16c0,0.993-0.805,1.798-1.797,1.798
			h-5.142c-0.993,0-1.798-0.805-1.798-1.798V45.411c0-0.993,0.805-1.798,1.798-1.798h5.142c0.992,0,1.797,0.805,1.797,1.798V60.16z"
			/>
		<path fill="#72913C" d="M60.268,59.691c0,1.252-0.805,2.267-1.795,2.267h-5.144c-0.992,0-1.797-1.015-1.797-2.267V41.088
			c0-1.252,0.805-2.267,1.797-2.267h5.144c0.99,0,1.795,1.015,1.795,2.267V59.691z"/>
		<path fill="#72913C" d="M72.578,59.078c0,1.591-0.805,2.88-1.797,2.88h-5.143c-0.992,0-1.797-1.289-1.797-2.88V35.44
			c0-1.59,0.805-2.879,1.797-2.879h5.143c0.992,0,1.797,1.289,1.797,2.879V59.078z"/>
		<circle fill="#72913C" cx="25.468" cy="16.374" r="12.468"/>
	</g>
</g>
</svg>
