<svg width="64" height="53" viewBox="0 0 64 53" fill="none" xmlns="http://www.w3.org/2000/svg">
<path d="M38.1821 12.521H26.0431C24.6051 12.521 23.4431 14.02 23.4431 15.869V25.945H40.7831V15.869C40.7831 14.02 39.6191 12.521 38.1821 12.521Z" fill="#72913C"/>
<path d="M32.3141 11.779C35.3113 11.779 37.7411 9.34924 37.7411 6.35199C37.7411 3.35474 35.3113 0.924988 32.3141 0.924988C29.3168 0.924988 26.8871 3.35474 26.8871 6.35199C26.8871 9.34924 29.3168 11.779 32.3141 11.779Z" fill="#72913C"/>
<path d="M15.4041 39.476H3.26508C1.82708 39.476 0.664062 40.975 0.664062 42.824V52.9H18.0041V42.824C18.0051 40.975 16.8421 39.476 15.4041 39.476Z" fill="#72913C"/>
<path d="M9.53613 38.734C12.5334 38.734 14.9631 36.3043 14.9631 33.307C14.9631 30.3098 12.5334 27.88 9.53613 27.88C6.53888 27.88 4.10913 30.3098 4.10913 33.307C4.10913 36.3043 6.53888 38.734 9.53613 38.734Z" fill="#72913C"/>
<path d="M60.9601 39.476H48.8211C47.3831 39.476 46.2201 40.975 46.2201 42.824V52.9H63.5601V42.824C63.5611 40.975 62.3971 39.476 60.9601 39.476Z" fill="#72913C"/>
<path d="M55.092 38.734C58.0893 38.734 60.519 36.3043 60.519 33.307C60.519 30.3098 58.0893 27.88 55.092 27.88C52.0948 27.88 49.665 30.3098 49.665 33.307C49.665 36.3043 52.0948 38.734 55.092 38.734Z" fill="#72913C"/>
<path d="M33.1581 38.352C33.1581 38.972 32.6901 39.476 32.1131 39.476C31.5361 39.476 31.0681 38.972 31.0681 38.352V31.316C31.0681 30.696 31.5361 30.192 32.1131 30.192C32.6901 30.192 33.1581 30.696 33.1581 31.316V38.352Z" fill="#72913C"/>
<path d="M27.837 43.87C27.399 44.308 26.712 44.335 26.304 43.927C25.896 43.519 25.921 42.831 26.36 42.393L31.336 37.417C31.774 36.979 32.461 36.953 32.869 37.361C33.277 37.769 33.252 38.456 32.813 38.894L27.837 43.87Z" fill="#72913C"/>
<path d="M37.8671 42.394C38.3051 42.832 38.3321 43.519 37.9241 43.927C37.5161 44.335 36.8281 44.31 36.3901 43.871L31.4141 38.895C30.9761 38.457 30.9501 37.77 31.3581 37.362C31.7661 36.954 32.4531 36.979 32.8911 37.418L37.8671 42.394Z" fill="#72913C"/>
</svg>
