<?xml version="1.0" encoding="utf-8"?>
<!-- Generator: Adobe Illustrator 15.0.0, SVG Export Plug-In . SVG Version: 6.00 Build 0)  -->
<!DOCTYPE svg PUBLIC "-//W3C//DTD SVG 1.1//EN" "http://www.w3.org/Graphics/SVG/1.1/DTD/svg11.dtd">
<svg version="1.1" xmlns="http://www.w3.org/2000/svg" xmlns:xlink="http://www.w3.org/1999/xlink" x="0px" y="0px" width="792px"
	 height="612px" viewBox="0 0 792 612" enable-background="new 0 0 792 612" xml:space="preserve">
<g id="back">
</g>
<g id="Layer_1">
	<g>
		<path fill="#72913C" d="M479.182,395.521h-12.139c-1.438,0-2.6,1.499-2.6,3.348v10.076h17.34v-10.076
			C481.783,397.02,480.619,395.521,479.182,395.521z"/>
		<circle fill="#72913C" cx="473.314" cy="389.352" r="5.427"/>
	</g>
	<g>
		<path fill="#72913C" d="M456.404,422.476h-12.139c-1.438,0-2.601,1.499-2.601,3.348v10.076h17.34v-10.076
			C459.005,423.975,457.842,422.476,456.404,422.476z"/>
		<circle fill="#72913C" cx="450.536" cy="416.307" r="5.427"/>
	</g>
	<g>
		<path fill="#72913C" d="M501.96,422.476h-12.139c-1.438,0-2.601,1.499-2.601,3.348v10.076h17.34v-10.076
			C504.561,423.975,503.397,422.476,501.96,422.476z"/>
		<circle fill="#72913C" cx="496.092" cy="416.307" r="5.427"/>
	</g>
	<path fill="#72913C" d="M474.158,421.352c0,0.62-0.468,1.124-1.045,1.124l0,0c-0.577,0-1.045-0.504-1.045-1.124v-7.036
		c0-0.62,0.468-1.124,1.045-1.124l0,0c0.577,0,1.045,0.504,1.045,1.124V421.352z"/>
	<path fill="#72913C" d="M468.837,426.87c-0.438,0.438-1.125,0.465-1.533,0.057l0,0c-0.408-0.408-0.383-1.096,0.056-1.534
		l4.976-4.976c0.438-0.438,1.125-0.464,1.533-0.056l0,0c0.408,0.408,0.383,1.095-0.056,1.533L468.837,426.87z"/>
	<path fill="#72913C" d="M478.867,425.394c0.438,0.438,0.465,1.125,0.057,1.533l0,0c-0.408,0.408-1.096,0.383-1.534-0.056
		l-4.976-4.976c-0.438-0.438-0.464-1.125-0.056-1.533l0,0c0.408-0.408,1.095-0.383,1.533,0.056L478.867,425.394z"/>
</g>
<g id="text">
</g>
</svg>
