<?xml version="1.0" encoding="utf-8"?>
<!-- Generator: Adobe Illustrator 15.0.0, SVG Export Plug-In . SVG Version: 6.00 Build 0)  -->
<!DOCTYPE svg PUBLIC "-//W3C//DTD SVG 1.1//EN" "http://www.w3.org/Graphics/SVG/1.1/DTD/svg11.dtd">
<svg version="1.1" xmlns="http://www.w3.org/2000/svg" xmlns:xlink="http://www.w3.org/1999/xlink" x="0px" y="0px" viewBox="0 0 108 108" enable-background="new 0 0 108 108" xml:space="preserve">
<g id="Layer_2">
</g>
<g id="Layer_1">
	<g>
		<path fill="#72913C" d="M44.182,17.442H32.043c-1.438,0-2.6,1.499-2.6,3.348v10.076h17.34V20.79
			C46.784,18.941,45.62,17.442,44.182,17.442z"/>
		<circle fill="#72913C" cx="38.315" cy="11.273" r="5.427"/>
	</g>
	<g>
		<path fill="#72913C" d="M21.405,44.397H9.266c-1.438,0-2.601,1.499-2.601,3.348V57.82h17.34V47.745
			C24.005,45.896,22.842,44.397,21.405,44.397z"/>
		<circle fill="#72913C" cx="15.537" cy="38.228" r="5.427"/>
	</g>
	<g>
		<path fill="#72913C" d="M66.961,44.397H54.822c-1.438,0-2.601,1.499-2.601,3.348V57.82h17.339V47.745
			C69.561,45.896,68.398,44.397,66.961,44.397z"/>
		<circle fill="#72913C" cx="61.092" cy="38.228" r="5.427"/>
	</g>
	<path fill="#72913C" d="M39.159,43.273c0,0.62-0.468,1.124-1.045,1.124l0,0c-0.577,0-1.045-0.504-1.045-1.124v-7.036
		c0-0.62,0.468-1.124,1.045-1.124l0,0c0.577,0,1.045,0.504,1.045,1.124V43.273z"/>
	<path fill="#72913C" d="M33.837,48.792c-0.438,0.438-1.125,0.465-1.533,0.057l0,0c-0.408-0.408-0.383-1.096,0.056-1.534
		l4.976-4.976c0.438-0.438,1.125-0.464,1.533-0.056l0,0c0.408,0.408,0.383,1.095-0.056,1.533L33.837,48.792z"/>
	<path fill="#72913C" d="M43.868,47.315c0.438,0.438,0.465,1.125,0.057,1.533l0,0c-0.408,0.408-1.096,0.383-1.534-0.056
		l-4.976-4.976c-0.438-0.438-0.464-1.125-0.056-1.533l0,0c0.408-0.408,1.095-0.383,1.533,0.056L43.868,47.315z"/>
</g>
</svg>
