<?xml version="1.0" encoding="utf-8"?>
<!-- Generator: Adobe Illustrator 15.0.0, SVG Export Plug-In . SVG Version: 6.00 Build 0)  -->
<!DOCTYPE svg PUBLIC "-//W3C//DTD SVG 1.1//EN" "http://www.w3.org/Graphics/SVG/1.1/DTD/svg11.dtd">
<svg version="1.1" xmlns="http://www.w3.org/2000/svg" xmlns:xlink="http://www.w3.org/1999/xlink" x="0px" y="0px" width="792px"
	 height="612px" viewBox="0 0 792 612" enable-background="new 0 0 792 612" xml:space="preserve">
<g id="back">
</g>
<g id="Layer_1">
	<polygon fill="#FFFFFF" points="81.501,285.148 74.897,272.464 84.25,283.281 	"/>
	<polygon fill="#FFFFFF" points="74.009,296.894 61.642,289.715 75.333,293.846 	"/>
	<polygon fill="#FFFFFF" points="74.967,309.208 61.366,313.623 73.58,306.188 	"/>
	<g>
		<path fill="#72913C" d="M627.488,281.54h-13.062c-2.628,0-4.759,1.049-4.759,2.343v27.002c0,1.212,1.868,2.209,4.264,2.331v19.111
			c0,1.295,1.325,2.343,2.961,2.343h8.13c1.636,0,2.961-1.048,2.961-2.343v-19.111c2.396-0.122,4.265-1.119,4.265-2.331v-27.002
			C632.247,282.589,630.116,281.54,627.488,281.54z"/>
		<circle fill="#72913C" cx="620.957" cy="272.438" r="7.026"/>
	</g>
	<g>
		<path fill="#72913C" d="M657.099,281.54h-13.062c-2.628,0-4.759,1.049-4.759,2.343v27.002c0,1.212,1.868,2.209,4.264,2.331v19.111
			c0,1.295,1.326,2.343,2.962,2.343h8.129c1.636,0,2.961-1.048,2.961-2.343v-19.111c2.396-0.122,4.265-1.119,4.265-2.331v-27.002
			C661.857,282.589,659.727,281.54,657.099,281.54z"/>
		<circle fill="#72913C" cx="650.567" cy="272.438" r="7.026"/>
	</g>
	<g>
		<g>
			<path fill="#72913C" d="M647.469,247.315h-15.845c-1.731,0-3.142,1.41-3.142,3.142v9.443c0,1.238,0.736,2.331,1.819,2.837
				l0.429,6.69l7.453-6.387h9.285c1.731,0,3.141-1.408,3.141-3.14v-9.443C650.609,248.725,649.2,247.315,647.469,247.315z
				 M648.588,259.899c0,0.617-0.503,1.119-1.119,1.119h-10.178v0.124l-4.802,4.115l-0.272-4.26l-0.823,0.053l0.011-0.053
				c-0.521-0.104-0.899-0.565-0.899-1.097v-9.443c0-0.618,0.503-1.12,1.119-1.12h15.845c0.616,0,1.119,0.502,1.119,1.12V259.899z"/>
		</g>
	</g>
</g>
<g id="text">
</g>
</svg>
