<?xml version="1.0" encoding="utf-8"?>
<!-- Generator: Adobe Illustrator 15.0.0, SVG Export Plug-In . SVG Version: 6.00 Build 0)  -->
<!DOCTYPE svg PUBLIC "-//W3C//DTD SVG 1.1//EN" "http://www.w3.org/Graphics/SVG/1.1/DTD/svg11.dtd">
<svg version="1.1" xmlns="http://www.w3.org/2000/svg" xmlns:xlink="http://www.w3.org/1999/xlink" x="0px" y="0px" viewBox="0 0 108 108" enable-background="new 0 0 108 108" xml:space="preserve">
<g id="Layer_2">
</g>
<g id="Layer_1">
	<polygon fill="#FFFFFF" points="20.53,11.726 20.961,13.035 22.193,13.942 22.193,17.698 27.18,14.004 34.631,13.757 
		36.047,13.035 36.417,11.294 36.17,4.398 35.493,3.413 33.461,3.167 22.131,3.167 21.253,3.475 20.53,4.275 	"/>
	<g>
		<path fill="#72913C" d="M19.152,28.964H9.024c-2.038,0-3.69,0.813-3.69,1.817v20.937c0,0.939,1.449,1.713,3.306,1.807v14.818
			c0,1.004,1.027,1.817,2.295,1.817h6.304c1.269,0,2.296-0.813,2.296-1.817V53.524c1.857-0.094,3.307-0.868,3.307-1.807V30.781
			C22.842,29.777,21.189,28.964,19.152,28.964z"/>
		<circle fill="#72913C" cx="14.088" cy="21.906" r="5.448"/>
	</g>
	<g>
		<path fill="#72913C" d="M42.111,28.964H31.983c-2.038,0-3.69,0.813-3.69,1.817v20.937c0,0.939,1.448,1.713,3.306,1.807v14.818
			c0,1.004,1.028,1.817,2.297,1.817h6.303c1.269,0,2.296-0.813,2.296-1.817V53.524c1.857-0.094,3.307-0.868,3.307-1.807V30.781
			C45.801,29.777,44.148,28.964,42.111,28.964z"/>
		<circle fill="#72913C" cx="37.047" cy="21.906" r="5.448"/>
	</g>
	<g>
		<g>
			<path fill="#72913C" d="M34.644,2.427H22.359c-1.343,0-2.436,1.093-2.436,2.436v7.322c0,0.96,0.571,1.807,1.411,2.2l0.333,5.188
				l5.779-4.953h7.199c1.343,0,2.436-1.092,2.436-2.435V4.863C37.08,3.52,35.987,2.427,34.644,2.427z M35.512,12.185
				c0,0.478-0.39,0.867-0.868,0.867h-7.891v0.096l-3.723,3.19l-0.211-3.303l-0.638,0.041l0.008-0.041
				c-0.404-0.081-0.697-0.438-0.697-0.851V4.863c0-0.479,0.39-0.868,0.868-0.868h12.285c0.478,0,0.868,0.389,0.868,0.868V12.185z"/>
		</g>
	</g>
</g>
</svg>
