<svg width="601" height="88" viewBox="0 0 601 88" fill="none" xmlns="http://www.w3.org/2000/svg">
<path d="M20.501 38.148L13.897 25.464L23.25 36.281L20.501 38.148Z" fill="white"/>
<path d="M13.009 49.894L0.641968 42.715L14.333 46.846L13.009 49.894Z" fill="white"/>
<path d="M13.967 62.208L0.365967 66.623L12.58 59.188L13.967 62.208Z" fill="white"/>
<path d="M566.488 34.54H553.426C550.798 34.54 548.667 35.589 548.667 36.883V63.885C548.667 65.097 550.535 66.094 552.931 66.216V85.327C552.931 86.622 554.256 87.67 555.892 87.67H564.022C565.658 87.67 566.983 86.622 566.983 85.327V66.216C569.379 66.094 571.248 65.097 571.248 63.885V36.883C571.247 35.589 569.116 34.54 566.488 34.54Z" fill="#72913C"/>
<path d="M559.957 32.464C563.837 32.464 566.983 29.3183 566.983 25.438C566.983 21.5576 563.837 18.412 559.957 18.412C556.077 18.412 552.931 21.5576 552.931 25.438C552.931 29.3183 556.077 32.464 559.957 32.464Z" fill="#72913C"/>
<path d="M596.099 34.54H583.037C580.409 34.54 578.278 35.589 578.278 36.883V63.885C578.278 65.097 580.146 66.094 582.542 66.216V85.327C582.542 86.622 583.868 87.67 585.504 87.67H593.633C595.269 87.67 596.594 86.622 596.594 85.327V66.216C598.99 66.094 600.859 65.097 600.859 63.885V36.883C600.857 35.589 598.727 34.54 596.099 34.54Z" fill="#72913C"/>
<path d="M589.567 32.464C593.447 32.464 596.593 29.3183 596.593 25.438C596.593 21.5576 593.447 18.412 589.567 18.412C585.687 18.412 582.541 21.5576 582.541 25.438C582.541 29.3183 585.687 32.464 589.567 32.464Z" fill="#72913C"/>
<path d="M586.469 0.315002H570.624C568.893 0.315002 567.482 1.725 567.482 3.457V12.9C567.482 14.138 568.218 15.231 569.301 15.737L569.73 22.427L577.183 16.04H586.468C588.199 16.04 589.609 14.632 589.609 12.9V3.457C589.609 1.725 588.2 0.315002 586.469 0.315002ZM587.588 12.899C587.588 13.516 587.085 14.018 586.469 14.018H576.291V14.142L571.489 18.257L571.217 13.997L570.394 14.05L570.405 13.997C569.884 13.893 569.506 13.432 569.506 12.9V3.457C569.506 2.839 570.009 2.33701 570.625 2.33701H586.47C587.086 2.33701 587.589 2.839 587.589 3.457V12.899H587.588Z" fill="#72913C"/>
</svg>
