<svg width="53" height="88" viewBox="0 0 53 88" fill="none" xmlns="http://www.w3.org/2000/svg">
<path d="M18.488 34.54H5.42603C2.79803 34.54 0.666992 35.589 0.666992 36.883V63.885C0.666992 65.097 2.53503 66.094 4.93103 66.216V85.327C4.93103 86.622 6.25603 87.67 7.89203 87.67H16.022C17.658 87.67 18.983 86.622 18.983 85.327V66.216C21.379 66.094 23.248 65.097 23.248 63.885V36.883C23.247 35.589 21.116 34.54 18.488 34.54Z" fill="#72913C"/>
<path d="M11.957 32.464C15.837 32.464 18.983 29.3183 18.983 25.438C18.983 21.5576 15.837 18.412 11.957 18.412C8.07697 18.412 4.93103 21.5576 4.93103 25.438C4.93103 29.3183 8.07697 32.464 11.957 32.464Z" fill="#72913C"/>
<path d="M48.099 34.54H35.037C32.409 34.54 30.278 35.589 30.278 36.883V63.885C30.278 65.097 32.146 66.094 34.542 66.216V85.327C34.542 86.622 35.868 87.67 37.504 87.67H45.633C47.269 87.67 48.594 86.622 48.594 85.327V66.216C50.99 66.094 52.859 65.097 52.859 63.885V36.883C52.857 35.589 50.727 34.54 48.099 34.54Z" fill="#72913C"/>
<path d="M41.567 32.464C45.447 32.464 48.593 29.3183 48.593 25.438C48.593 21.5576 45.447 18.412 41.567 18.412C37.687 18.412 34.541 21.5576 34.541 25.438C34.541 29.3183 37.687 32.464 41.567 32.464Z" fill="#72913C"/>
<path d="M38.469 0.315002H22.624C20.893 0.315002 19.482 1.725 19.482 3.457V12.9C19.482 14.138 20.218 15.231 21.301 15.737L21.73 22.427L29.183 16.04H38.468C40.199 16.04 41.609 14.632 41.609 12.9V3.457C41.609 1.725 40.2 0.315002 38.469 0.315002ZM39.588 12.899C39.588 13.516 39.085 14.018 38.469 14.018H28.291V14.142L23.489 18.257L23.217 13.997L22.394 14.05L22.405 13.997C21.884 13.893 21.506 13.432 21.506 12.9V3.457C21.506 2.839 22.009 2.33701 22.625 2.33701H38.47C39.086 2.33701 39.589 2.839 39.589 3.457V12.899H39.588Z" fill="#72913C"/>
</svg>
