<svg width="47" height="67" viewBox="0 0 47 67" fill="none" xmlns="http://www.w3.org/2000/svg">
<path d="M43.148 27.282C43.148 26.398 43.043 25.539 42.85 24.71L46.613 22.597L43.017 16.189L39 18.443C37.637 17.265 35.998 16.376 34.19 15.856V10.678H26.84V15.856C25.024 16.38 23.383 17.276 22.012 18.454L17.994 16.204L14.406 22.616L18.174 24.726C17.984 25.549 17.881 26.403 17.881 27.282C17.881 28.25 18.007 29.194 18.241 30.096L14.573 32.155L18.167 38.566L22.231 36.284C23.553 37.375 25.12 38.21 26.841 38.707V42.96H34.191V38.707C35.917 38.208 37.486 37.371 38.813 36.275L42.88 38.549L46.468 32.139L42.795 30.08C43.023 29.187 43.148 28.245 43.148 27.282ZM35.604 27.282C35.604 30.087 33.323 32.371 30.514 32.371C27.71 32.371 25.423 30.087 25.423 27.282C25.423 24.473 27.71 22.189 30.514 22.189C33.322 22.189 35.604 24.474 35.604 27.282Z" fill="#72913C"/>
<path d="M17.137 15.994H4.61599C2.09699 15.994 0.0549927 17 0.0549927 18.24V44.122C0.0549927 45.284 1.84599 46.239 4.14199 46.356V64.674C4.14199 65.915 5.413 66.92 6.98 66.92H14.772C16.339 66.92 17.61 65.915 17.61 64.674V46.356C19.907 46.239 21.698 45.284 21.698 44.122V18.24C21.698 17 19.656 15.994 17.137 15.994Z" fill="#72913C"/>
<path d="M10.876 14.003C14.5951 14.003 17.61 10.9881 17.61 7.26901C17.61 3.54993 14.5951 0.535004 10.876 0.535004C7.15691 0.535004 4.142 3.54993 4.142 7.26901C4.142 10.9881 7.15691 14.003 10.876 14.003Z" fill="#72913C"/>
<path d="M32.184 44.858C32.184 44.317 32.12 43.793 32.001 43.285L34.303 41.992L32.103 38.072L29.645 39.451C28.811 38.73 27.809 38.186 26.702 37.869V34.7H22.206V37.869C21.095 38.189 20.091 38.737 19.252 39.458L16.794 38.081L14.598 42.004L16.904 43.295C16.787 43.799 16.724 44.321 16.724 44.858C16.724 45.45 16.801 46.028 16.944 46.58L14.7 47.84L16.899 51.762L19.386 50.366C20.195 51.033 21.153 51.545 22.206 51.848V54.45H26.702V51.848C27.758 51.543 28.718 51.032 29.53 50.361L32.018 51.753L34.214 47.831L31.967 46.572C32.106 46.024 32.184 45.448 32.184 44.858ZM27.568 44.858C27.568 46.574 26.172 47.971 24.454 47.971C22.738 47.971 21.339 46.574 21.339 44.858C21.339 43.14 22.738 41.743 24.454 41.743C26.172 41.743 27.568 43.141 27.568 44.858Z" fill="#72913C" stroke="white" stroke-width="1.5" stroke-miterlimit="10"/>
</svg>
