<?xml version="1.0" encoding="utf-8"?>
<!-- Generator: Adobe Illustrator 15.0.0, SVG Export Plug-In . SVG Version: 6.00 Build 0)  -->
<!DOCTYPE svg PUBLIC "-//W3C//DTD SVG 1.1//EN" "http://www.w3.org/Graphics/SVG/1.1/DTD/svg11.dtd">
<svg version="1.1" xmlns="http://www.w3.org/2000/svg" xmlns:xlink="http://www.w3.org/1999/xlink" x="0px" y="0px" width="792px"
	 height="612px" viewBox="0 0 792 612" enable-background="new 0 0 792 612" xml:space="preserve">
<g id="back">
</g>
<g id="Layer_1">
	<path fill="#72913C" d="M129.148,511.282c0-0.884-0.105-1.743-0.298-2.572l3.763-2.113l-3.596-6.408L125,502.443
		c-1.363-1.178-3.002-2.067-4.81-2.587v-5.178h-7.35v5.178c-1.816,0.524-3.457,1.42-4.828,2.598l-4.018-2.25l-3.588,6.412
		l3.768,2.11c-0.19,0.823-0.293,1.677-0.293,2.556c0,0.968,0.126,1.912,0.36,2.814l-3.668,2.059l3.594,6.411l4.064-2.282
		c1.322,1.091,2.889,1.926,4.61,2.423v4.253h7.35v-4.253c1.726-0.499,3.295-1.336,4.622-2.432l4.067,2.274l3.588-6.41l-3.673-2.059
		C129.023,513.187,129.148,512.245,129.148,511.282z M121.604,511.282c0,2.805-2.281,5.089-5.09,5.089
		c-2.804,0-5.091-2.284-5.091-5.089c0-2.809,2.287-5.093,5.091-5.093C119.322,506.189,121.604,508.474,121.604,511.282z"/>
	<g>
		<path fill="#72913C" d="M103.137,499.994H90.616c-2.519,0-4.561,1.006-4.561,2.246v25.882c0,1.162,1.791,2.117,4.087,2.234v18.318
			c0,1.241,1.271,2.246,2.838,2.246h7.792c1.567,0,2.838-1.005,2.838-2.246v-18.318c2.297-0.117,4.088-1.072,4.088-2.234V502.24
			C107.698,501,105.656,499.994,103.137,499.994z"/>
		<circle fill="#72913C" cx="96.876" cy="491.269" r="6.734"/>
	</g>
	<path fill="#72913C" stroke="#FFFFFF" stroke-width="1.5" stroke-miterlimit="10" d="M118.184,528.858
		c0-0.541-0.064-1.065-0.183-1.573l2.302-1.293l-2.2-3.92l-2.458,1.379c-0.834-0.721-1.836-1.265-2.943-1.582V518.7h-4.496v3.169
		c-1.111,0.32-2.115,0.868-2.954,1.589l-2.458-1.377l-2.196,3.923l2.306,1.291c-0.117,0.504-0.18,1.026-0.18,1.563
		c0,0.592,0.077,1.17,0.22,1.722l-2.244,1.26l2.199,3.922l2.487-1.396c0.809,0.667,1.767,1.179,2.82,1.482v2.602h4.496v-2.602
		c1.056-0.305,2.016-0.816,2.828-1.487l2.488,1.392l2.196-3.922l-2.247-1.259C118.106,530.024,118.184,529.448,118.184,528.858z
		 M113.568,528.858c0,1.716-1.396,3.113-3.114,3.113c-1.716,0-3.115-1.397-3.115-3.113c0-1.718,1.399-3.115,3.115-3.115
		C112.172,525.743,113.568,527.141,113.568,528.858z"/>
</g>
<g id="text">
</g>
</svg>
