<?xml version="1.0" encoding="utf-8"?>
<!-- Generator: Adobe Illustrator 15.0.0, SVG Export Plug-In . SVG Version: 6.00 Build 0)  -->
<!DOCTYPE svg PUBLIC "-//W3C//DTD SVG 1.1//EN" "http://www.w3.org/Graphics/SVG/1.1/DTD/svg11.dtd">
<svg version="1.1" xmlns="http://www.w3.org/2000/svg" xmlns:xlink="http://www.w3.org/1999/xlink" x="0px" y="0px" viewBox="0 0 108 108" enable-background="new 0 0 108 108" xml:space="preserve">
<g id="Layer_2">
</g>
<g id="Layer_1">
	<circle fill="#FFFFFF" cx="29.622" cy="23.689" r="7.045"/>
	<path fill="#72913C" d="M39.818,24.063c0-0.713-0.085-1.406-0.24-2.075l3.035-1.705l-2.9-5.169l-3.241,1.819
		c-1.1-0.95-2.421-1.667-3.88-2.087v-4.177h-5.929v4.177c-1.465,0.423-2.789,1.146-3.895,2.096l-3.242-1.815l-2.896,5.172
		l3.04,1.703c-0.153,0.664-0.237,1.353-0.237,2.062c0,0.781,0.103,1.542,0.292,2.271l-2.96,1.661l2.9,5.172l3.278-1.841
		c1.067,0.88,2.331,1.554,3.719,1.955v3.431h5.929v-3.431c1.392-0.402,2.658-1.078,3.729-1.961l3.281,1.834l2.894-5.171
		l-2.963-1.661C39.717,25.599,39.818,24.84,39.818,24.063z M33.732,24.063c0,2.263-1.84,4.105-4.106,4.105
		c-2.263,0-4.107-1.843-4.107-4.105c0-2.266,1.845-4.108,4.107-4.108C31.892,19.955,33.732,21.797,33.732,24.063z"/>
	<g>
		<path fill="#72913C" d="M18.835,14.957H8.734c-2.032,0-3.68,0.812-3.68,1.812v20.878c0,0.938,1.445,1.708,3.298,1.803v14.777
			c0,1.001,1.024,1.812,2.289,1.812h6.286c1.264,0,2.289-0.811,2.289-1.812V39.45c1.853-0.095,3.298-0.865,3.298-1.803V16.769
			C22.515,15.769,20.867,14.957,18.835,14.957z"/>
		<circle fill="#72913C" cx="13.785" cy="7.918" r="5.432"/>
	</g>
	<path fill="#72913C" stroke="#FFFFFF" stroke-width="1.5" stroke-miterlimit="10" d="M30.973,38.242
		c0-0.437-0.052-0.859-0.147-1.269l1.857-1.043l-1.774-3.163l-1.982,1.113c-0.674-0.582-1.482-1.021-2.375-1.276v-2.557h-3.627
		v2.557c-0.896,0.258-1.706,0.7-2.383,1.282l-1.982-1.111l-1.772,3.165l1.86,1.042c-0.095,0.406-0.145,0.828-0.145,1.261
		c0,0.478,0.062,0.944,0.178,1.389l-1.81,1.017l1.773,3.164l2.006-1.126c0.652,0.538,1.425,0.951,2.274,1.196v2.099h3.627V43.88
		c0.852-0.246,1.626-0.659,2.281-1.2l2.007,1.123l1.772-3.164l-1.812-1.015C30.911,39.182,30.973,38.717,30.973,38.242z
		 M27.25,38.242c0,1.384-1.126,2.511-2.513,2.511c-1.383,0-2.512-1.127-2.512-2.511c0-1.386,1.129-2.513,2.512-2.513
		C26.124,35.729,27.25,36.856,27.25,38.242z"/>
</g>
</svg>
