<?xml version="1.0" encoding="utf-8"?>
<!-- Generator: Adobe Illustrator 15.0.0, SVG Export Plug-In . SVG Version: 6.00 Build 0)  -->
<!DOCTYPE svg PUBLIC "-//W3C//DTD SVG 1.1//EN" "http://www.w3.org/Graphics/SVG/1.1/DTD/svg11.dtd">
<svg version="1.1" xmlns="http://www.w3.org/2000/svg" xmlns:xlink="http://www.w3.org/1999/xlink" x="0px" y="0px" width="792px"
	 height="612px" viewBox="0 0 792 612" enable-background="new 0 0 792 612" xml:space="preserve">
<g id="back">
</g>
<g id="Layer_1">
	<path fill="#72913C" d="M705.34,514.397h-13.388c-2.693,0-4.877,1.076-4.877,2.402v27.674c0,1.242,1.914,2.265,4.37,2.39v19.586
		c0,1.327,1.358,2.401,3.034,2.401h8.332c1.676,0,3.034-1.074,3.034-2.401v-19.586c2.456-0.125,4.371-1.147,4.371-2.39V516.8
		C710.217,515.474,708.033,514.397,705.34,514.397z"/>
	<circle fill="#72913C" cx="698.646" cy="505.07" r="7.201"/>
	<rect x="717.417" y="512.894" fill="#72913C" width="32.038" height="4.834"/>
	<rect x="717.417" y="541.88" fill="#72913C" width="32.038" height="4.528"/>
	<rect x="719.296" y="517.393" fill="#72913C" width="1.207" height="25.359"/>
	<rect x="746.063" y="517.393" fill="#72913C" width="1.207" height="25.359"/>
	<rect x="723.321" y="520.68" fill="#72913C" width="20.395" height="1.073"/>
	<rect x="723.321" y="524.906" fill="#72913C" width="20.395" height="1.073"/>
	<rect x="723.321" y="529.133" fill="#72913C" width="20.395" height="1.073"/>
	<rect x="723.321" y="533.36" fill="#72913C" width="20.395" height="1.072"/>
	<rect x="723.321" y="537.587" fill="#72913C" width="20.395" height="1.072"/>
	<path fill="#72913C" d="M726.928,532.01c-1.138,1.692-3.431,2.142-5.122,1.004l-15.644-10.517c-1.692-1.137-2.142-3.43-1.005-5.122
		l0,0c1.137-1.69,3.431-2.141,5.121-1.003l15.645,10.517C727.615,528.025,728.063,530.319,726.928,532.01L726.928,532.01z"/>
</g>
<g id="text">
</g>
</svg>
