<svg viewBox="0 0 63 72" fill="none" xmlns="http://www.w3.org/2000/svg">
<path d="M18.34 17.397H4.95203C2.25903 17.397 0.0750122 18.473 0.0750122 19.799V47.473C0.0750122 48.715 1.98901 49.738 4.44501 49.863V69.449C4.44501 70.776 5.803 71.85 7.479 71.85H15.811C17.487 71.85 18.845 70.776 18.845 69.449V49.863C21.301 49.738 23.216 48.716 23.216 47.473V19.8C23.217 18.474 21.033 17.397 18.34 17.397Z" fill="#72913C"/>
<path d="M11.646 15.271C15.623 15.271 18.847 12.047 18.847 8.07001C18.847 4.093 15.623 0.868988 11.646 0.868988C7.66899 0.868988 4.44501 4.093 4.44501 8.07001C4.44501 12.047 7.66899 15.271 11.646 15.271Z" fill="#72913C"/>
<path d="M62.455 15.894H30.417V20.728H62.455V15.894Z" fill="#72913C"/>
<path d="M62.455 44.88H30.417V49.408H62.455V44.88Z" fill="#72913C"/>
<path d="M33.503 20.393H32.296V45.752H33.503V20.393Z" fill="#72913C"/>
<path d="M60.27 20.393H59.063V45.752H60.27V20.393Z" fill="#72913C"/>
<path d="M56.716 23.68H36.321V24.753H56.716V23.68Z" fill="#72913C"/>
<path d="M56.716 27.906H36.321V28.979H56.716V27.906Z" fill="#72913C"/>
<path d="M56.716 32.133H36.321V33.206H56.716V32.133Z" fill="#72913C"/>
<path d="M56.716 36.36H36.321V37.432H56.716V36.36Z" fill="#72913C"/>
<path d="M56.716 40.587H36.321V41.659H56.716V40.587Z" fill="#72913C"/>
<path d="M39.928 35.01C38.79 36.702 36.497 37.152 34.806 36.014L19.162 25.497C17.47 24.36 17.02 22.067 18.157 20.375C19.294 18.685 21.588 18.234 23.278 19.372L38.923 29.889C40.615 31.025 41.063 33.319 39.928 35.01Z" fill="#72913C"/>
</svg>
