<?xml version="1.0" encoding="utf-8"?>
<!-- Generator: Adobe Illustrator 15.0.0, SVG Export Plug-In . SVG Version: 6.00 Build 0)  -->
<!DOCTYPE svg PUBLIC "-//W3C//DTD SVG 1.1//EN" "http://www.w3.org/Graphics/SVG/1.1/DTD/svg11.dtd">
<svg version="1.1" xmlns="http://www.w3.org/2000/svg" xmlns:xlink="http://www.w3.org/1999/xlink" x="0px" y="0px" viewBox="0 0 108 108" enable-background="new 0 0 108 108" xml:space="preserve">
<g id="Layer_2">
</g>
<g id="Layer_1">
	<rect x="38.233" y="20.221" fill="#FFFFFF" width="26.164" height="27.441"/>
	<path fill="#72913C" d="M23.673,19.308H10.286c-2.693,0-4.877,1.076-4.877,2.402v27.674c0,1.242,1.914,2.265,4.37,2.39v19.585
		c0,1.328,1.358,2.402,3.034,2.402h8.332c1.676,0,3.034-1.074,3.034-2.402V51.774c2.456-0.125,4.371-1.147,4.371-2.39V21.71
		C28.55,20.384,26.367,19.308,23.673,19.308z"/>
	<circle fill="#72913C" cx="16.979" cy="9.98" r="7.201"/>
	<rect x="35.75" y="17.804" fill="#72913C" width="32.039" height="4.834"/>
	<rect x="35.75" y="46.791" fill="#72913C" width="32.039" height="4.528"/>
	<rect x="37.629" y="22.303" fill="#72913C" width="1.207" height="25.359"/>
	<rect x="64.396" y="22.303" fill="#72913C" width="1.207" height="25.359"/>
	<rect x="41.655" y="25.59" fill="#72913C" width="20.394" height="1.073"/>
	<rect x="41.655" y="29.817" fill="#72913C" width="20.394" height="1.073"/>
	<rect x="41.655" y="34.043" fill="#72913C" width="20.394" height="1.073"/>
	<rect x="41.655" y="38.271" fill="#72913C" width="20.394" height="1.072"/>
	<rect x="41.655" y="42.498" fill="#72913C" width="20.394" height="1.072"/>
	<path fill="#72913C" d="M45.261,36.92c-1.138,1.692-3.431,2.142-5.122,1.004L24.496,27.408c-1.692-1.137-2.142-3.43-1.005-5.122
		l0,0c1.137-1.69,3.431-2.141,5.121-1.003l15.645,10.517C45.949,32.936,46.397,35.23,45.261,36.92L45.261,36.92z"/>
</g>
</svg>
