<svg width="24" height="81" viewBox="0 0 24 81" fill="none" xmlns="http://www.w3.org/2000/svg">
<path d="M18.546 26.875H5.31995C2.65895 26.875 0.501953 27.937 0.501953 29.248V56.588C0.501953 57.816 2.39391 58.824 4.81891 58.948V78.299C4.81891 79.61 6.16096 80.671 7.81696 80.671H16.0469C17.7029 80.671 19.046 79.609 19.046 78.299V58.948C21.472 58.824 23.3629 57.815 23.3629 56.588V29.248C23.3639 27.938 21.207 26.875 18.546 26.875Z" fill="#72913C"/>
<path d="M11.9329 24.773C15.8618 24.773 19.0469 21.5879 19.0469 17.659C19.0469 13.73 15.8618 10.545 11.9329 10.545C8.00391 10.545 4.81885 13.73 4.81885 17.659C4.81885 21.5879 8.00391 24.773 11.9329 24.773Z" fill="#72913C"/>
<path d="M19.491 6.35699L19.052 6.16299L18.235 5.80099L17.373 5.41901L19.358 1.959L15.583 5.793L16.051 6L16.84 6.349L17.701 6.73001L15.716 10.19L19.491 6.35699Z" fill="#72913C"/>
<path d="M6.94092 4.66199L6.52496 4.90302L5.75092 5.349L4.93591 5.82101L3.30994 2.17899L4.18292 7.48801L4.62592 7.23099L5.37195 6.79999L6.18793 6.32901L7.81396 9.97101L6.94092 4.66199Z" fill="#72913C"/>
<path d="M13.1479 3.78201L12.6719 3.84299L11.7859 3.95401L10.851 4.073L10.7639 0.0859985L9.51196 5.319L10.02 5.254L10.8729 5.146L11.8099 5.02701L11.8969 9.01501L13.1479 3.78201Z" fill="#72913C"/>
</svg>
