<?xml version="1.0" encoding="utf-8"?>
<!-- Generator: Adobe Illustrator 15.0.0, SVG Export Plug-In . SVG Version: 6.00 Build 0)  -->
<!DOCTYPE svg PUBLIC "-//W3C//DTD SVG 1.1//EN" "http://www.w3.org/Graphics/SVG/1.1/DTD/svg11.dtd">
<svg version="1.1" xmlns="http://www.w3.org/2000/svg" xmlns:xlink="http://www.w3.org/1999/xlink" x="0px" y="0px" viewBox="0 0 108 108" enable-background="new 0 0 108 108" xml:space="preserve">
<g id="Layer_2">
</g>
<g id="Layer_1">
	<g>
		<path fill="#72913C" d="M19.556,23.84H9.011c-2.122,0-3.842,0.847-3.842,1.892V47.53c0,0.978,1.508,1.783,3.442,1.881v15.429
			c0,1.045,1.07,1.891,2.39,1.891h6.562c1.321,0,2.391-0.846,2.391-1.891V49.412c1.934-0.098,3.442-0.903,3.442-1.881V25.731
			C23.397,24.687,21.678,23.84,19.556,23.84z"/>
		<circle fill="#72913C" cx="14.283" cy="16.491" r="5.672"/>
	</g>
	<polygon fill="#72913C" points="20.31,7.48 19.959,7.325 19.308,7.037 18.621,6.732 20.204,3.974 17.193,7.03 17.566,7.195 
		18.195,7.473 18.882,7.778 17.299,10.537 	"/>
	<polygon fill="#72913C" points="10.303,6.128 9.972,6.321 9.354,6.676 8.704,7.053 7.408,4.148 8.104,8.382 8.457,8.177 
		9.052,7.833 9.703,7.458 11,10.361 	"/>
	<polygon fill="#72913C" points="15.252,5.427 14.872,5.476 14.166,5.564 13.42,5.659 13.351,2.48 12.353,6.653 12.757,6.601 
		13.438,6.514 14.185,6.419 14.255,9.6 	"/>
</g>
</svg>
