<?xml version="1.0" encoding="utf-8"?>
<!-- Generator: Adobe Illustrator 15.0.0, SVG Export Plug-In . SVG Version: 6.00 Build 0)  -->
<!DOCTYPE svg PUBLIC "-//W3C//DTD SVG 1.1//EN" "http://www.w3.org/Graphics/SVG/1.1/DTD/svg11.dtd">
<svg version="1.1" xmlns="http://www.w3.org/2000/svg" xmlns:xlink="http://www.w3.org/1999/xlink" x="0px" y="0px" width="792px"
	 height="612px" viewBox="0 0 792 612" enable-background="new 0 0 792 612" xml:space="preserve">
<g id="back">
</g>
<g id="Layer_1">
	<g>
		<path fill="#72913C" d="M745.546,280.875H732.32c-2.661,0-4.818,1.062-4.818,2.373v27.34c0,1.228,1.892,2.236,4.317,2.36v19.351
			c0,1.311,1.342,2.372,2.998,2.372h8.23c1.656,0,2.999-1.062,2.999-2.372v-19.351c2.426-0.124,4.317-1.133,4.317-2.36v-27.34
			C750.364,281.938,748.207,280.875,745.546,280.875z"/>
		<circle fill="#72913C" cx="738.933" cy="271.659" r="7.114"/>
	</g>
	<polygon fill="#72913C" points="746.491,260.357 746.052,260.163 745.235,259.801 744.373,259.419 746.358,255.959 
		742.583,259.793 743.051,260 743.84,260.349 744.701,260.73 742.716,264.19 	"/>
	<polygon fill="#72913C" points="733.941,258.662 733.525,258.903 732.751,259.349 731.936,259.821 730.31,256.179 731.183,261.488 
		731.626,261.231 732.372,260.8 733.188,260.329 734.814,263.971 	"/>
	<polygon fill="#72913C" points="740.148,257.782 739.672,257.843 738.786,257.954 737.851,258.073 737.764,254.086 
		736.512,259.319 737.02,259.254 737.873,259.146 738.81,259.027 738.897,263.015 	"/>
</g>
<g id="text">
</g>
</svg>
