<svg viewBox="0 0 42 64" fill="none" xmlns="http://www.w3.org/2000/svg">
<path d="M39.3822 57.213C39.7312 57.948 39.4172 58.825 38.6822 59.175L33.0932 57.751L30.6552 62.978C29.9202 63.327 29.0422 63.013 28.6942 62.279L21.6902 47.497C21.3422 46.762 21.6552 45.884 22.3902 45.535L30.4172 41.731C31.1522 41.383 32.0302 41.696 32.3782 42.432L39.3822 57.213Z" fill="#72913C"/>
<path d="M11.0461 62.285C10.6941 63.019 9.81611 63.329 9.08211 62.977L6.6661 57.74L1.07012 59.14C0.337119 58.788 0.027109 57.91 0.379109 57.176L7.44512 42.423C7.79712 41.69 8.67611 41.379 9.40911 41.731L17.4201 45.568C18.1531 45.92 18.4631 46.798 18.1121 47.532L11.0461 62.285Z" fill="#72913C"/>
<path d="M38.0952 9.43799L32.3542 3.69699L24.8542 0.591003H16.7361L9.23615 3.69699L3.49615 9.43799L0.38916 16.938V25.056L3.49615 32.556L9.23615 38.296L16.7361 41.402H24.8542L32.3542 38.296L38.0952 32.556L41.2011 25.056V16.938L38.0952 9.43799ZM34.1532 23.653L32.1201 28.562L28.3622 32.32L23.4532 34.353H18.1402L13.2311 32.32L9.47314 28.562L7.43915 23.653V18.34L9.47314 13.431L13.2311 9.673L18.1402 7.64001H23.4532L28.3622 9.673L32.1201 13.431L34.1532 18.34V23.653Z" fill="#72913C"/>
</svg>
