<?xml version="1.0" encoding="utf-8"?>
<!-- Generator: Adobe Illustrator 15.0.0, SVG Export Plug-In . SVG Version: 6.00 Build 0)  -->
<!DOCTYPE svg PUBLIC "-//W3C//DTD SVG 1.1//EN" "http://www.w3.org/Graphics/SVG/1.1/DTD/svg11.dtd">
<svg version="1.1" xmlns="http://www.w3.org/2000/svg" xmlns:xlink="http://www.w3.org/1999/xlink" x="0px" y="0px" width="792px"
	 height="612px" viewBox="0 0 792 612" enable-background="new 0 0 792 612" xml:space="preserve">
<g id="back">
</g>
<g id="Layer_1">
	<g>
		<path fill="#72913C" d="M375.382,329.213c0.349,0.735,0.035,1.612-0.7,1.962l-5.589-1.424l-2.438,5.227
			c-0.735,0.349-1.613,0.035-1.961-0.699l-7.004-14.782c-0.348-0.735-0.035-1.613,0.7-1.962l8.027-3.804
			c0.735-0.348,1.613-0.035,1.961,0.701L375.382,329.213z"/>
		<path fill="#72913C" d="M347.046,334.285c-0.352,0.734-1.23,1.044-1.964,0.692l-2.416-5.237l-5.596,1.4
			c-0.733-0.352-1.043-1.23-0.691-1.964l7.066-14.753c0.352-0.733,1.231-1.044,1.964-0.692l8.011,3.837
			c0.733,0.352,1.043,1.23,0.692,1.964L347.046,334.285z"/>
		<path fill="#72913C" d="M374.095,281.438l-5.741-5.741l-7.5-3.106h-8.118l-7.5,3.106l-5.74,5.741l-3.107,7.5v8.118l3.107,7.5
			l5.74,5.74l7.5,3.106h8.118l7.5-3.106l5.741-5.74l3.106-7.5v-8.118L374.095,281.438z M370.153,295.653l-2.033,4.909l-3.758,3.758
			l-4.909,2.033h-5.313l-4.909-2.033l-3.758-3.758l-2.034-4.909v-5.313l2.034-4.909l3.758-3.758l4.909-2.033h5.313l4.909,2.033
			l3.758,3.758l2.033,4.909V295.653z"/>
	</g>
</g>
<g id="text">
</g>
</svg>
