<?xml version="1.0" encoding="utf-8"?>
<!-- Generator: Adobe Illustrator 15.0.0, SVG Export Plug-In . SVG Version: 6.00 Build 0)  -->
<!DOCTYPE svg PUBLIC "-//W3C//DTD SVG 1.1//EN" "http://www.w3.org/Graphics/SVG/1.1/DTD/svg11.dtd">
<svg version="1.1" xmlns="http://www.w3.org/2000/svg" xmlns:xlink="http://www.w3.org/1999/xlink" x="0px" y="0px" viewBox="0 0 108 108" enable-background="new 0 0 108 108" xml:space="preserve">
<g id="Layer_2">
</g>
<g id="Layer_1">
	<circle fill="#FFFFFF" fill-opacity="0" cx="26.796" cy="27" r="17.3"/>
	<g>
		<path fill="#72913C" d="M45.383,62.679c0.348,0.735,0.035,1.612-0.7,1.962l-5.589-1.424l-2.438,5.227
			c-0.735,0.349-1.612,0.035-1.961-0.699l-7.005-14.782c-0.348-0.735-0.034-1.613,0.701-1.962l8.027-3.804
			c0.734-0.348,1.612-0.035,1.961,0.701L45.383,62.679z"/>
		<path fill="#72913C" d="M17.047,67.751c-0.352,0.734-1.23,1.044-1.965,0.692l-2.416-5.237l-5.596,1.4
			c-0.732-0.352-1.043-1.23-0.691-1.964l7.066-14.753c0.352-0.733,1.23-1.044,1.964-0.692l8.011,3.837
			c0.734,0.352,1.044,1.23,0.692,1.964L17.047,67.751z"/>
		<path fill="#72913C" d="M44.096,14.904l-5.741-5.741l-7.499-3.106h-8.119l-7.5,3.106l-5.74,5.741l-3.106,7.5v8.118l3.106,7.501
			l5.74,5.739l7.5,3.106h8.119l7.499-3.106l5.741-5.739l3.105-7.501v-8.118L44.096,14.904z M40.152,29.119l-2.033,4.909
			l-3.758,3.758l-4.908,2.033h-5.314l-4.908-2.033l-3.758-3.758l-2.034-4.909v-5.313l2.034-4.909l3.758-3.758l4.908-2.033h5.314
			l4.908,2.033l3.758,3.758l2.033,4.909V29.119z"/>
	</g>
</g>
</svg>
