<?xml version="1.0" encoding="utf-8"?>
<!-- Generator: Adobe Illustrator 15.0.0, SVG Export Plug-In . SVG Version: 6.00 Build 0)  -->
<!DOCTYPE svg PUBLIC "-//W3C//DTD SVG 1.1//EN" "http://www.w3.org/Graphics/SVG/1.1/DTD/svg11.dtd">
<svg version="1.1" xmlns="http://www.w3.org/2000/svg" xmlns:xlink="http://www.w3.org/1999/xlink" x="0px" y="0px" viewBox="0 0 108 108" enable-background="new 0 0 108 108" xml:space="preserve">
<g id="Layer_2">
</g>
<g id="Layer_1">
	<circle fill="#72913C" cx="37.964" cy="14.289" r="10.706"/>
	<path fill="#72913C" d="M49.939,26.459h-5.014l-5.33,12.074l-0.594-7.153c0.824-0.307,1.432-1.297,1.432-2.485
		c0-1.434-0.878-2.594-1.961-2.594h-1.018c-1.084,0-1.962,1.16-1.962,2.594c0,1.188,0.608,2.178,1.432,2.485l-0.594,7.152
		l-5.329-12.073h-5.014c-2.833,0-5.13,2.957-5.13,6.604v19.879h34.211V33.064C55.069,29.417,52.773,26.459,49.939,26.459z"/>
	<g>
		<circle fill="#72913C" cx="15.356" cy="12.798" r="7.22"/>
		<path fill="#72913C" d="M23.432,22.1h-3.381l-3.594,8.143l-0.401-4.825c0.555-0.207,0.966-0.875,0.966-1.676
			c0-0.967-0.593-1.749-1.323-1.749h-0.686c-0.731,0-1.323,0.782-1.323,1.749c0,0.801,0.41,1.469,0.965,1.676l-0.4,4.824L10.66,22.1
			H7.278c-1.91,0-3.459,1.994-3.459,4.454v13.407h23.072V26.554C26.891,24.094,25.343,22.1,23.432,22.1z"/>
	</g>
	<g>
		<circle fill="#72913C" cx="62.551" cy="12.798" r="7.22"/>
		<path fill="#72913C" d="M70.627,22.1h-3.381l-3.594,8.143l-0.401-4.825c0.555-0.207,0.965-0.875,0.965-1.676
			c0-0.967-0.592-1.749-1.323-1.749h-0.686c-0.73,0-1.322,0.782-1.322,1.749c0,0.801,0.409,1.469,0.966,1.676l-0.401,4.824
			L57.855,22.1h-3.382c-1.91,0-3.459,1.994-3.459,4.454v13.407h23.072V26.554C74.086,24.094,72.538,22.1,70.627,22.1z"/>
	</g>
</g>
</svg>
