<svg viewBox="0 0 87 62" fill="none" xmlns="http://www.w3.org/2000/svg">
<path d="M42.234 27.304C49.5209 27.304 55.428 21.3969 55.428 14.11C55.428 6.82317 49.5209 0.916016 42.234 0.916016C34.9472 0.916016 29.04 6.82317 29.04 14.11C29.04 21.3969 34.9472 27.304 42.234 27.304Z" fill="#72913C"/>
<path d="M56.994 29.11H50.815L44.247 43.991L43.515 35.175C44.531 34.797 45.279 33.576 45.279 32.113C45.279 30.346 44.197 28.917 42.862 28.917H41.608C40.273 28.917 39.191 30.347 39.191 32.113C39.191 33.577 39.94 34.798 40.955 35.175L40.223 43.99L33.655 29.11H27.476C23.985 29.11 21.155 32.755 21.155 37.25V61.75H63.318V37.25C63.316 32.755 60.486 29.11 56.994 29.11Z" fill="#72913C"/>
<path d="M14.371 21.17C19.2853 21.17 23.269 17.1863 23.269 12.272C23.269 7.3578 19.2853 3.37402 14.371 3.37402C9.4568 3.37402 5.47302 7.3578 5.47302 12.272C5.47302 17.1863 9.4568 21.17 14.371 21.17Z" fill="#72913C"/>
<path d="M24.3251 23.7371H20.1581L15.7281 33.7731L15.2341 27.8271C15.9191 27.5721 16.4241 26.7491 16.4241 25.7621C16.4241 24.5711 15.6941 23.6071 14.7941 23.6071H13.9481C13.0481 23.6071 12.3181 24.5711 12.3181 25.7621C12.3181 26.7491 12.823 27.5731 13.507 27.8271L13.0131 33.7721L8.58307 23.7371H4.41605C2.06205 23.7371 0.153076 26.1951 0.153076 29.2261V45.7491H28.5881V29.2261C28.5881 26.1951 26.6801 23.7371 24.3251 23.7371Z" fill="#72913C"/>
<path d="M72.5371 21.17C77.4514 21.17 81.4352 17.1863 81.4352 12.272C81.4352 7.3578 77.4514 3.37402 72.5371 3.37402C67.6229 3.37402 63.6392 7.3578 63.6392 12.272C63.6392 17.1863 67.6229 21.17 72.5371 21.17Z" fill="#72913C"/>
<path d="M82.4911 23.7371H78.3241L73.8941 33.7731L73.4001 27.8271C74.0851 27.5721 74.5901 26.7491 74.5901 25.7621C74.5901 24.5711 73.8601 23.6071 72.9601 23.6071H72.1141C71.2141 23.6071 70.4841 24.5711 70.4841 25.7621C70.4841 26.7491 70.9891 27.5731 71.6731 27.8271L71.1791 33.7721L66.7491 23.7371H62.5821C60.2281 23.7371 58.3191 26.1951 58.3191 29.2261V45.7491H86.7541V29.2261C86.7541 26.1951 84.8461 23.7371 82.4911 23.7371Z" fill="#72913C"/>
</svg>
