<?xml version="1.0" encoding="utf-8"?>
<!-- Generator: Adobe Illustrator 15.0.0, SVG Export Plug-In . SVG Version: 6.00 Build 0)  -->
<!DOCTYPE svg PUBLIC "-//W3C//DTD SVG 1.1//EN" "http://www.w3.org/Graphics/SVG/1.1/DTD/svg11.dtd">
<svg version="1.1" xmlns="http://www.w3.org/2000/svg" xmlns:xlink="http://www.w3.org/1999/xlink" x="0px" y="0px" width="792px"
	 height="612px" viewBox="0 0 792 612" enable-background="new 0 0 792 612" xml:space="preserve">
<g id="back">
</g>
<g id="Layer_1">
	<circle fill="#72913C" cx="336.234" cy="387.11" r="13.194"/>
	<path fill="#72913C" d="M350.994,402.11h-6.179l-6.568,14.881l-0.732-8.816c1.016-0.378,1.764-1.599,1.764-3.062
		c0-1.767-1.082-3.196-2.417-3.196h-1.254c-1.335,0-2.417,1.43-2.417,3.196c0,1.464,0.749,2.685,1.764,3.062l-0.732,8.815
		l-6.568-14.88h-6.179c-3.491,0-6.321,3.645-6.321,8.14v24.5h42.163v-24.5C357.316,405.755,354.486,402.11,350.994,402.11z"/>
	<g>
		<circle fill="#72913C" cx="308.371" cy="385.272" r="8.898"/>
		<path fill="#72913C" d="M318.325,396.737h-4.167l-4.43,10.036l-0.494-5.946c0.685-0.255,1.19-1.078,1.19-2.065
			c0-1.191-0.73-2.155-1.63-2.155h-0.846c-0.9,0-1.63,0.964-1.63,2.155c0,0.987,0.505,1.811,1.189,2.065l-0.494,5.945l-4.43-10.035
			h-4.167c-2.354,0-4.263,2.458-4.263,5.489v16.523h28.435v-16.523C322.588,399.195,320.68,396.737,318.325,396.737z"/>
	</g>
	<g>
		<circle fill="#72913C" cx="366.537" cy="385.272" r="8.898"/>
		<path fill="#72913C" d="M376.491,396.737h-4.167l-4.43,10.036l-0.494-5.946c0.685-0.255,1.19-1.078,1.19-2.065
			c0-1.191-0.73-2.155-1.63-2.155h-0.846c-0.9,0-1.63,0.964-1.63,2.155c0,0.987,0.505,1.811,1.189,2.065l-0.494,5.945l-4.43-10.035
			h-4.167c-2.354,0-4.263,2.458-4.263,5.489v16.523h28.435v-16.523C380.754,399.195,378.846,396.737,376.491,396.737z"/>
	</g>
</g>
<g id="text">
</g>
</svg>
