<svg width="70" height="53" viewBox="0 0 70 53" fill="none" xmlns="http://www.w3.org/2000/svg">
<path d="M34.181 31.397C34.181 30.367 34.058 29.367 33.834 28.403L38.215 25.941L34.029 18.482L29.351 21.108C27.764 19.736 25.857 18.7 23.752 18.096V12.068H15.196V18.096C13.082 18.706 11.172 19.749 9.57495 21.12L4.89795 18.5L0.720947 25.965L5.10796 28.421C4.88596 29.379 4.76596 30.373 4.76596 31.397C4.76596 32.522 4.91295 33.622 5.18495 34.673L0.914948 37.069L5.09895 44.532L9.82996 41.876C11.369 43.146 13.193 44.118 15.196 44.696V49.646H23.752V44.696C25.761 44.115 27.587 43.141 29.132 41.866L33.866 44.513L38.043 37.051L33.767 34.655C34.035 33.613 34.181 32.517 34.181 31.397ZM25.3979 31.397C25.3979 34.661 22.742 37.32 19.472 37.32C16.208 37.32 13.546 34.661 13.546 31.397C13.546 28.127 16.208 25.468 19.472 25.468C22.743 25.468 25.3979 28.127 25.3979 31.397Z" fill="#72913C"/>
<path d="M60.252 12.771C60.252 12.141 60.177 11.53 60.04 10.939L62.72 9.43402L60.159 4.87103L57.298 6.47604C56.327 5.63704 55.16 5.00303 53.872 4.63403V0.946045H48.638V4.63403C47.345 5.00703 46.176 5.64504 45.2 6.48404L42.339 4.88104L39.783 9.44702L42.467 10.95C42.331 11.536 42.258 12.144 42.258 12.77C42.258 13.458 42.348 14.131 42.514 14.774L39.902 16.24L42.462 20.805L45.357 19.18C46.298 19.956 47.414 20.552 48.64 20.906V23.934H53.874V20.906C55.103 20.551 56.221 19.955 57.166 19.175L60.062 20.795L62.618 16.23L60 14.765C60.163 14.128 60.252 13.457 60.252 12.771ZM54.879 12.771C54.879 14.768 53.254 16.395 51.254 16.395C49.257 16.395 47.629 14.768 47.629 12.771C47.629 10.771 49.257 9.14404 51.254 9.14404C53.254 9.14504 54.879 10.771 54.879 12.771Z" fill="#72913C"/>
<path d="M67.252 41.771C67.252 41.141 67.177 40.53 67.04 39.939L69.72 38.434L67.159 33.871L64.298 35.476C63.327 34.637 62.16 34.003 60.872 33.634V29.946H55.638V33.634C54.345 34.007 53.176 34.645 52.2 35.484L49.339 33.881L46.783 38.447L49.467 39.95C49.331 40.536 49.258 41.144 49.258 41.77C49.258 42.458 49.348 43.131 49.514 43.774L46.902 45.24L49.462 49.805L52.357 48.18C53.298 48.956 54.414 49.552 55.64 49.906V52.934H60.874V49.906C62.103 49.551 63.221 48.955 64.166 48.175L67.062 49.795L69.618 45.23L67 43.765C67.163 43.128 67.252 42.457 67.252 41.771ZM61.879 41.771C61.879 43.768 60.254 45.395 58.254 45.395C56.257 45.395 54.629 43.768 54.629 41.771C54.629 39.771 56.257 38.144 58.254 38.144C60.254 38.145 61.879 39.771 61.879 41.771Z" fill="#72913C"/>
</svg>
