<?xml version="1.0" encoding="utf-8"?>
<!-- Generator: Adobe Illustrator 15.0.0, SVG Export Plug-In . SVG Version: 6.00 Build 0)  -->
<!DOCTYPE svg PUBLIC "-//W3C//DTD SVG 1.1//EN" "http://www.w3.org/Graphics/SVG/1.1/DTD/svg11.dtd">
<svg version="1.1" xmlns="http://www.w3.org/2000/svg" xmlns:xlink="http://www.w3.org/1999/xlink" x="0px" y="0px" width="792px"
	 height="612px" viewBox="0 0 792 612" enable-background="new 0 0 792 612" xml:space="preserve">
<g id="back">
</g>
<g id="Layer_1">
	<path fill="#72913C" d="M254.181,304.397c0-1.03-0.123-2.03-0.347-2.994l4.381-2.462l-4.186-7.459l-4.678,2.626
		c-1.587-1.372-3.494-2.408-5.599-3.012v-6.028h-8.556v6.028c-2.114,0.61-4.024,1.653-5.621,3.024l-4.677-2.62l-4.177,7.465
		l4.387,2.456c-0.222,0.958-0.342,1.952-0.342,2.976c0,1.125,0.147,2.225,0.419,3.276l-4.27,2.396l4.184,7.463l4.731-2.656
		c1.539,1.27,3.363,2.242,5.366,2.82v4.95h8.556v-4.95c2.009-0.581,3.835-1.555,5.38-2.83l4.734,2.647l4.177-7.462l-4.276-2.396
		C254.035,306.613,254.181,305.517,254.181,304.397z M245.398,304.397c0,3.264-2.656,5.923-5.926,5.923
		c-3.264,0-5.926-2.659-5.926-5.923c0-3.27,2.662-5.929,5.926-5.929C242.743,298.468,245.398,301.127,245.398,304.397z"/>
	<path fill="#72913C" d="M280.252,285.771c0-0.63-0.075-1.241-0.212-1.832l2.68-1.505l-2.561-4.563l-2.861,1.605
		c-0.971-0.839-2.138-1.473-3.426-1.842v-3.688h-5.234v3.688c-1.293,0.373-2.462,1.011-3.438,1.85l-2.861-1.603l-2.556,4.566
		l2.684,1.503c-0.136,0.586-0.209,1.194-0.209,1.82c0,0.688,0.09,1.361,0.256,2.004l-2.612,1.466l2.56,4.565l2.895-1.625
		c0.941,0.776,2.057,1.372,3.283,1.726v3.028h5.234v-3.028c1.229-0.355,2.347-0.951,3.292-1.731l2.896,1.62l2.556-4.565L280,287.765
		C280.163,287.128,280.252,286.457,280.252,285.771z M274.879,285.771c0,1.997-1.625,3.624-3.625,3.624
		c-1.997,0-3.625-1.627-3.625-3.624c0-2,1.628-3.627,3.625-3.627C273.254,282.145,274.879,283.771,274.879,285.771z"/>
	<path fill="#72913C" d="M287.252,314.771c0-0.63-0.075-1.241-0.212-1.832l2.68-1.505l-2.561-4.563l-2.861,1.605
		c-0.971-0.839-2.138-1.473-3.426-1.842v-3.688h-5.234v3.688c-1.293,0.373-2.462,1.011-3.438,1.85l-2.861-1.603l-2.556,4.566
		l2.684,1.503c-0.136,0.586-0.209,1.194-0.209,1.82c0,0.688,0.09,1.361,0.256,2.004l-2.612,1.466l2.56,4.565l2.895-1.625
		c0.941,0.776,2.057,1.372,3.283,1.726v3.028h5.234v-3.028c1.229-0.355,2.347-0.951,3.292-1.731l2.896,1.62l2.556-4.565L287,316.765
		C287.163,316.128,287.252,315.457,287.252,314.771z M281.879,314.771c0,1.997-1.625,3.624-3.625,3.624
		c-1.997,0-3.625-1.627-3.625-3.624c0-2,1.628-3.627,3.625-3.627C280.254,311.145,281.879,312.771,281.879,314.771z"/>
</g>
<g id="text">
</g>
</svg>
