<?xml version="1.0" encoding="utf-8"?>
<!-- Generator: Adobe Illustrator 15.0.0, SVG Export Plug-In . SVG Version: 6.00 Build 0)  -->
<!DOCTYPE svg PUBLIC "-//W3C//DTD SVG 1.1//EN" "http://www.w3.org/Graphics/SVG/1.1/DTD/svg11.dtd">
<svg version="1.1" xmlns="http://www.w3.org/2000/svg" xmlns:xlink="http://www.w3.org/1999/xlink" x="0px" y="0px" viewBox="0 0 108 108" enable-background="new 0 0 108 108" xml:space="preserve">
<g id="Layer_2">
</g>
<g id="Layer_1">
	<circle fill="#FFFFFF" cx="22.135" cy="35" r="8.865"/>
	<circle fill="#FFFFFF" cx="54" cy="15.441" r="5.333"/>
	<circle fill="#FFFFFF" cx="60.918" cy="44.441" r="6.415"/>
	<path fill="#72913C" d="M36.849,34.396c0-1.029-0.123-2.029-0.348-2.994l4.381-2.461l-4.186-7.459l-4.678,2.626
		c-1.588-1.372-3.494-2.408-5.6-3.012v-6.028h-8.556v6.028c-2.114,0.61-4.024,1.653-5.62,3.024L7.565,21.5l-4.178,7.465l4.387,2.456
		c-0.221,0.958-0.342,1.952-0.342,2.976c0,1.126,0.147,2.226,0.42,3.276l-4.27,2.396l4.184,7.463l4.73-2.656
		c1.539,1.27,3.363,2.242,5.366,2.82v4.95h8.556v-4.95c2.009-0.581,3.836-1.555,5.381-2.83l4.734,2.647l4.177-7.462l-4.276-2.396
		C36.702,36.613,36.849,35.517,36.849,34.396z M28.065,34.396c0,3.265-2.656,5.924-5.926,5.924c-3.264,0-5.926-2.659-5.926-5.924
		c0-3.27,2.662-5.929,5.926-5.929C25.409,28.468,28.065,31.127,28.065,34.396z"/>
	<path fill="#72913C" d="M62.919,15.771c0-0.63-0.074-1.241-0.213-1.832l2.681-1.505l-2.562-4.563l-2.861,1.605
		c-0.971-0.839-2.137-1.473-3.426-1.842V3.946h-5.233v3.688c-1.294,0.373-2.462,1.011-3.438,1.85l-2.861-1.603l-2.556,4.566
		l2.684,1.503c-0.136,0.586-0.209,1.194-0.209,1.82c0,0.688,0.09,1.361,0.257,2.004l-2.613,1.466l2.561,4.565l2.895-1.625
		c0.941,0.776,2.057,1.372,3.282,1.726v3.028h5.233v-3.028c1.229-0.355,2.348-0.951,3.292-1.731l2.896,1.62l2.556-4.565
		l-2.615-1.466C62.829,17.128,62.919,16.457,62.919,15.771z M57.546,15.771c0,1.997-1.625,3.624-3.625,3.624
		c-1.997,0-3.625-1.627-3.625-3.624c0-2,1.628-3.627,3.625-3.627C55.921,12.145,57.546,13.771,57.546,15.771z"/>
	<path fill="#72913C" d="M69.919,44.771c0-0.63-0.074-1.241-0.213-1.832l2.681-1.505l-2.562-4.563l-2.861,1.605
		c-0.971-0.839-2.137-1.473-3.426-1.842v-3.688h-5.233v3.688c-1.294,0.373-2.462,1.011-3.438,1.85l-2.861-1.603l-2.556,4.566
		l2.684,1.503c-0.136,0.586-0.209,1.194-0.209,1.82c0,0.688,0.09,1.361,0.257,2.004l-2.613,1.466l2.561,4.565l2.895-1.625
		c0.941,0.776,2.057,1.372,3.282,1.726v3.028h5.233v-3.028c1.229-0.355,2.348-0.951,3.292-1.731l2.896,1.62l2.556-4.565
		l-2.615-1.466C69.829,46.128,69.919,45.457,69.919,44.771z M64.546,44.771c0,1.997-1.625,3.624-3.625,3.624
		c-1.997,0-3.625-1.627-3.625-3.624c0-2,1.628-3.627,3.625-3.627C62.921,41.145,64.546,42.771,64.546,44.771z"/>
</g>
</svg>
