<?xml version="1.0" encoding="utf-8"?>
<!-- Generator: Adobe Illustrator 15.0.0, SVG Export Plug-In . SVG Version: 6.00 Build 0)  -->
<!DOCTYPE svg PUBLIC "-//W3C//DTD SVG 1.1//EN" "http://www.w3.org/Graphics/SVG/1.1/DTD/svg11.dtd">
<svg version="1.1" xmlns="http://www.w3.org/2000/svg" xmlns:xlink="http://www.w3.org/1999/xlink" x="0px" y="0px" width="792px"
	 height="612px" viewBox="0 0 792 612" enable-background="new 0 0 792 612" xml:space="preserve">
<g id="back">
</g>
<g id="Layer_1">
	<g>
		<path fill="#72913C" d="M110.727,405.48H83.134c-3.263,0-5.909,3.406-5.909,7.608v22.9h39.41v-22.9
			C116.636,408.887,113.99,405.48,110.727,405.48z"/>
		<circle fill="#72913C" cx="97.388" cy="391.46" r="12.333"/>
	</g>
	<circle fill="#72913C" stroke="#FFFFFF" stroke-width="1.5" stroke-miterlimit="10" cx="120.375" cy="419.034" r="17.188"/>
	<g>
		<path fill="#FFFFFF" d="M127.495,421.163c0,0.613-0.128,1.194-0.384,1.742c-0.255,0.547-0.609,1.025-1.062,1.435
			c-0.46,0.416-1.022,0.761-1.687,1.035c-0.665,0.273-1.413,0.433-2.246,0.477v3.965h-1.796v-3.91
			c-0.789-0.008-1.665-0.106-2.629-0.296s-1.727-0.427-2.289-0.712v-3.177h0.35c0.351,0.227,0.982,0.487,1.895,0.783
			c0.913,0.296,1.822,0.462,2.728,0.499v-3.034l-0.975-0.241c-0.562-0.139-1.099-0.307-1.61-0.504s-0.971-0.468-1.38-0.811
			c-0.401-0.336-0.717-0.743-0.947-1.222s-0.345-1.094-0.345-1.846c0-1.095,0.458-2.028,1.375-2.799
			c0.916-0.771,2.192-1.235,3.828-1.396V408.6h1.796v2.53c0.657,0.021,1.411,0.118,2.262,0.29c0.851,0.172,1.502,0.356,1.956,0.553
			v3.155h-0.351c-0.533-0.329-1.114-0.588-1.742-0.778c-0.628-0.189-1.354-0.307-2.18-0.35v2.782l0.964,0.208
			c1.519,0.328,2.644,0.809,3.374,1.44C127.129,419.062,127.495,419.973,127.495,421.163z M120.451,416.573v-2.562
			c-0.409,0.036-0.763,0.157-1.062,0.361s-0.449,0.5-0.449,0.887c0,0.314,0.088,0.573,0.263,0.778
			C119.378,416.241,119.794,416.42,120.451,416.573z M123.617,421.591c0-0.365-0.129-0.665-0.389-0.898s-0.674-0.405-1.243-0.515
			v2.804c0.46-0.044,0.847-0.174,1.161-0.389C123.46,422.377,123.617,422.043,123.617,421.591z"/>
	</g>
</g>
<g id="text">
</g>
</svg>
