<svg viewBox="0 0 62 58" fill="none" xmlns="http://www.w3.org/2000/svg">
<path d="M33.727 26.48H6.13401C2.87101 26.48 0.225006 29.886 0.225006 34.088V56.988H39.635V34.088C39.636 29.887 36.99 26.48 33.727 26.48Z" fill="#72913C"/>
<path d="M20.388 24.793C27.1993 24.793 32.721 19.2713 32.721 12.46C32.721 5.64866 27.1993 0.127014 20.388 0.127014C13.5767 0.127014 8.05501 5.64866 8.05501 12.46C8.05501 19.2713 13.5767 24.793 20.388 24.793Z" fill="#72913C"/>
<path d="M43.375 57.222C52.8677 57.222 60.563 49.5267 60.563 40.034C60.563 30.5413 52.8677 22.846 43.375 22.846C33.8823 22.846 26.187 30.5413 26.187 40.034C26.187 49.5267 33.8823 57.222 43.375 57.222Z" fill="#72913C" stroke="white" stroke-width="1.5" stroke-miterlimit="10"/>
<path d="M50.495 42.163C50.495 42.776 50.367 43.357 50.111 43.905C49.856 44.452 49.502 44.93 49.049 45.34C48.589 45.756 48.027 46.101 47.362 46.375C46.697 46.648 45.949 46.808 45.116 46.852V50.817H43.32V46.907C42.531 46.899 41.655 46.801 40.691 46.611C39.727 46.421 38.964 46.184 38.402 45.899V42.722H38.752C39.103 42.949 39.734 43.209 40.647 43.505C41.56 43.801 42.469 43.967 43.375 44.004V40.97L42.4 40.729C41.838 40.59 41.301 40.422 40.79 40.225C40.279 40.028 39.819 39.757 39.41 39.414C39.009 39.078 38.693 38.671 38.463 38.192C38.233 37.713 38.118 37.098 38.118 36.346C38.118 35.251 38.576 34.318 39.493 33.547C40.409 32.776 41.685 32.312 43.321 32.151V29.6H45.117V32.13C45.774 32.151 46.528 32.248 47.379 32.42C48.23 32.592 48.881 32.776 49.335 32.973V36.128H48.984C48.451 35.799 47.87 35.54 47.242 35.35C46.614 35.161 45.888 35.043 45.062 35V37.782L46.026 37.99C47.545 38.318 48.67 38.799 49.4 39.43C50.129 40.062 50.495 40.973 50.495 42.163ZM43.451 37.573V35.011C43.042 35.047 42.688 35.168 42.389 35.372C42.09 35.576 41.94 35.872 41.94 36.259C41.94 36.573 42.028 36.832 42.203 37.037C42.378 37.241 42.794 37.42 43.451 37.573ZM46.617 42.591C46.617 42.226 46.488 41.926 46.228 41.693C45.968 41.46 45.554 41.288 44.985 41.178V43.982C45.445 43.938 45.832 43.808 46.146 43.593C46.46 43.377 46.617 43.043 46.617 42.591Z" fill="white"/>
</svg>
