<?xml version="1.0" encoding="utf-8"?>
<!-- Generator: Adobe Illustrator 15.0.0, SVG Export Plug-In . SVG Version: 6.00 Build 0)  -->
<!DOCTYPE svg PUBLIC "-//W3C//DTD SVG 1.1//EN" "http://www.w3.org/Graphics/SVG/1.1/DTD/svg11.dtd">
<svg version="1.1" xmlns="http://www.w3.org/2000/svg" xmlns:xlink="http://www.w3.org/1999/xlink" x="0px" y="0px" viewBox="0 0 108 108" enable-background="new 0 0 108 108" xml:space="preserve">
<g id="Layer_2">
</g>
<g id="Layer_1">
	<g>
		<path fill="#72913C" d="M37.061,29.481H9.469c-3.264,0-5.909,3.406-5.909,7.608V59.99h39.41V37.089
			C42.97,32.887,40.324,29.481,37.061,29.481z"/>
		<circle fill="#72913C" cx="23.723" cy="15.46" r="12.333"/>
	</g>
	<circle fill="#72913C" stroke="#FFFFFF" stroke-width="1.5" stroke-miterlimit="10" cx="46.709" cy="43.035" r="17.188"/>
	<g>
		<path fill="#FFFFFF" d="M53.828,45.164c0,0.613-0.127,1.194-0.383,1.742c-0.256,0.547-0.609,1.025-1.062,1.435
			c-0.461,0.416-1.022,0.761-1.688,1.035c-0.664,0.273-1.412,0.433-2.245,0.477v3.965h-1.796v-3.91
			c-0.789-0.008-1.666-0.106-2.629-0.296c-0.965-0.189-1.728-0.427-2.289-0.712v-3.177h0.35c0.351,0.227,0.982,0.487,1.895,0.783
			c0.914,0.296,1.822,0.462,2.729,0.499V43.97l-0.975-0.241c-0.562-0.139-1.1-0.307-1.611-0.504
			c-0.511-0.197-0.971-0.468-1.38-0.811c-0.401-0.336-0.718-0.743-0.947-1.222s-0.345-1.094-0.345-1.846
			c0-1.095,0.458-2.028,1.375-2.799c0.916-0.771,2.191-1.235,3.828-1.396V32.6h1.796v2.53c0.657,0.021,1.411,0.118,2.262,0.29
			s1.503,0.356,1.956,0.553v3.155h-0.352c-0.533-0.329-1.113-0.588-1.741-0.778c-0.628-0.189-1.354-0.307-2.18-0.35v2.782
			l0.964,0.208c1.52,0.328,2.644,0.809,3.373,1.44C53.463,43.062,53.828,43.973,53.828,45.164z M46.785,40.574v-2.562
			c-0.408,0.036-0.764,0.157-1.062,0.361s-0.449,0.5-0.449,0.887c0,0.314,0.088,0.573,0.264,0.778
			C45.712,40.242,46.128,40.42,46.785,40.574z M49.951,45.591c0-0.365-0.13-0.665-0.389-0.898c-0.26-0.233-0.674-0.405-1.244-0.515
			v2.804c0.461-0.044,0.848-0.174,1.162-0.389C49.794,46.377,49.951,46.043,49.951,45.591z"/>
	</g>
</g>
</svg>
