<svg width="99" height="121" viewBox="0 0 99 121" fill="none" xmlns="http://www.w3.org/2000/svg">
<path d="M98.744 5.594C98.744 2.505 96.471 0 93.666 0H5.078C2.274 0 0 2.505 0 5.594V114.412C0 117.502 2.274 120.006 5.078 120.006H93.666C96.471 120.006 98.744 117.502 98.744 114.412V5.594Z" fill="#72913C"/>
<path d="M31.548 35.934C24.655 35.934 19.048 30.327 19.048 23.434C19.048 16.541 24.655 10.934 31.548 10.934C38.441 10.934 44.048 16.541 44.048 23.434C44.048 30.327 38.441 35.934 31.548 35.934ZM31.548 15.934C27.412 15.934 24.048 19.298 24.048 23.434C24.048 27.57 27.412 30.934 31.548 30.934C35.684 30.934 39.048 27.57 39.048 23.434C39.048 19.298 35.684 15.934 31.548 15.934Z" fill="white"/>
<path d="M33.681 89.124L26.451 81.895L33.681 74.665L28.778 69.762L21.548 76.991L14.318 69.762L9.41602 74.664L16.646 81.894L9.41602 89.124L14.318 94.027L21.549 86.797L28.778 94.026L33.681 89.124Z" fill="white"/>
<path d="M88.39 60.717L81.16 53.487L88.39 46.258L83.487 41.354L76.257 48.584L69.027 41.354L64.125 46.257L71.355 53.486L64.125 60.717L69.027 65.62L76.258 58.39L83.487 65.619L88.39 60.717Z" fill="white"/>
<path d="M36.394 111.697C35.208 111.697 34.073 111.676 33.012 111.656L33.104 106.657C42.585 106.826 50.836 106.458 55.882 100.1C60.81 93.889 61.086 83.582 56.497 77.123C54.103 73.753 51.592 71.335 49.163 68.997C44.07 64.093 39.259 59.461 39.225 48.498L44.225 48.482C44.252 57.327 47.767 60.711 52.631 65.394C55.105 67.776 57.908 70.476 60.573 74.227C66.459 82.512 66.119 95.241 59.799 103.207C53.747 110.834 44.013 111.697 36.394 111.697Z" fill="white"/>
<path d="M39.557 65.824L34.557 65.823C34.557 62.648 35.298 59.635 36.015 56.72C36.754 53.713 37.452 50.872 37.361 47.952L37.171 41.898L41.576 46.055C42.728 47.142 43.76 48.38 44.759 49.577C47.501 52.865 49.873 55.704 54.177 55.331L54.607 60.312C48.363 60.853 44.683 57.211 41.802 53.83C41.533 55.219 41.2 56.575 40.872 57.912C40.195 60.66 39.558 63.253 39.557 65.824Z" fill="white"/>
</svg>
