<?xml version="1.0" encoding="utf-8"?>
<!-- Generator: Adobe Illustrator 15.0.0, SVG Export Plug-In . SVG Version: 6.00 Build 0)  -->
<!DOCTYPE svg PUBLIC "-//W3C//DTD SVG 1.1//EN" "http://www.w3.org/Graphics/SVG/1.1/DTD/svg11.dtd">
<svg version="1.1" id="Layer_1" xmlns="http://www.w3.org/2000/svg" xmlns:xlink="http://www.w3.org/1999/xlink" x="0px" y="0px"
	  viewBox="0 0 108 108" enable-background="new 0 0 108 108" xml:space="preserve">
<path fill="#72913C" d="M84.724,7.399c0-2.547-1.874-4.612-4.187-4.612H7.499c-2.312,0-4.187,2.065-4.187,4.612v89.717
	c0,2.547,1.875,4.612,4.187,4.612h73.039c2.312,0,4.187-2.065,4.187-4.612V7.399z"/>
<path fill="#FFFFFF" d="M29.323,32.414c-5.683,0-10.306-4.623-10.306-10.306c0-5.683,4.623-10.306,10.306-10.306
	c5.683,0,10.306,4.623,10.306,10.306C39.628,27.791,35.005,32.414,29.323,32.414z M29.323,15.925c-3.41,0-6.184,2.773-6.184,6.183
	c0,3.41,2.773,6.184,6.184,6.184c3.41,0,6.183-2.773,6.183-6.184C35.506,18.698,32.732,15.925,29.323,15.925z"/>
<polygon fill="#FFFFFF" points="31.081,76.267 25.12,70.307 31.081,64.346 27.039,60.304 21.078,66.264 15.117,60.304 
	11.075,64.346 17.036,70.306 11.075,76.267 15.117,80.311 21.078,74.349 27.039,80.309 "/>
<polygon fill="#FFFFFF" points="76.186,52.846 70.227,46.886 76.187,40.925 72.144,36.883 66.184,42.843 60.223,36.883 
	56.182,40.925 62.142,46.885 56.181,52.846 60.223,56.89 66.185,50.928 72.144,56.888 "/>
<path fill="#FFFFFF" d="M33.317,94.878c-0.978,0-1.914-0.018-2.789-0.033l0.076-4.122c7.816,0.14,14.619-0.164,18.78-5.406
	c4.062-5.12,4.29-13.618,0.506-18.943c-1.973-2.778-4.044-4.771-6.047-6.7c-4.198-4.043-8.165-7.862-8.193-16.9l4.122-0.013
	c0.022,7.292,2.92,10.082,6.931,13.943c2.04,1.964,4.351,4.189,6.548,7.282c4.852,6.831,4.573,17.325-0.639,23.894
	C47.624,94.167,39.599,94.878,33.317,94.878z"/>
<path fill="#FFFFFF" d="M35.925,57.057l-4.122-0.001c0-2.617,0.611-5.102,1.202-7.504c0.609-2.48,1.185-4.821,1.109-7.229
	l-0.157-4.991l3.631,3.427c0.95,0.896,1.8,1.917,2.624,2.904c2.26,2.71,4.216,5.051,7.765,4.744l0.354,4.107
	c-5.147,0.446-8.182-2.556-10.557-5.344c-0.221,1.145-0.496,2.262-0.767,3.365C36.451,52.799,35.926,54.938,35.925,57.057z"/>
</svg>
