<?xml version="1.0" encoding="utf-8"?>
<!-- Generator: Adobe Illustrator 15.0.0, SVG Export Plug-In . SVG Version: 6.00 Build 0)  -->
<!DOCTYPE svg PUBLIC "-//W3C//DTD SVG 1.1//EN" "http://www.w3.org/Graphics/SVG/1.1/DTD/svg11.dtd">
<svg version="1.1" xmlns="http://www.w3.org/2000/svg" xmlns:xlink="http://www.w3.org/1999/xlink" x="0px" y="0px" width="792px"
	 height="612px" viewBox="0 0 792 612" enable-background="new 0 0 792 612" xml:space="preserve">
<g id="back">
</g>
<g id="Layer_1">
	<path fill="#72913C" d="M315.39,69.49c0-3.089-2.273-5.594-5.078-5.594h-88.588c-2.804,0-5.078,2.505-5.078,5.594v108.818
		c0,3.09,2.274,5.594,5.078,5.594h88.588c2.805,0,5.078-2.504,5.078-5.594V69.49z"/>
	<path fill="#FFFFFF" d="M248.194,99.83c-6.893,0-12.5-5.607-12.5-12.5s5.607-12.5,12.5-12.5s12.5,5.607,12.5,12.5
		S255.087,99.83,248.194,99.83z M248.194,79.83c-4.136,0-7.5,3.364-7.5,7.5s3.364,7.5,7.5,7.5s7.5-3.364,7.5-7.5
		S252.33,79.83,248.194,79.83z"/>
	<polygon fill="#FFFFFF" points="250.327,153.02 243.097,145.791 250.327,138.561 245.424,133.658 238.194,140.887 230.964,133.658 
		226.062,138.56 233.292,145.79 226.062,153.02 230.964,157.923 238.195,150.693 245.424,157.922 	"/>
	<polygon fill="#FFFFFF" points="305.036,124.613 297.806,117.383 305.036,110.154 300.133,105.25 292.903,112.48 285.673,105.25 
		280.771,110.153 288.001,117.382 280.771,124.613 285.673,129.516 292.904,122.286 300.133,129.515 	"/>
	<path fill="#FFFFFF" d="M253.04,175.593c-1.186,0-2.321-0.021-3.382-0.041l0.092-4.999c9.481,0.169,17.732-0.199,22.778-6.557
		c4.928-6.211,5.204-16.518,0.615-22.977c-2.394-3.37-4.905-5.788-7.334-8.126c-5.093-4.904-9.904-9.536-9.938-20.499l5-0.016
		c0.027,8.845,3.542,12.229,8.406,16.912c2.474,2.382,5.277,5.082,7.942,8.833c5.886,8.285,5.546,21.014-0.774,28.98
		C270.393,174.73,260.659,175.593,253.04,175.593z"/>
	<path fill="#FFFFFF" d="M256.203,129.72l-5-0.001c0-3.175,0.741-6.188,1.458-9.103c0.739-3.007,1.437-5.848,1.346-8.768
		l-0.19-6.054l4.405,4.157c1.152,1.087,2.184,2.325,3.183,3.522c2.742,3.288,5.114,6.127,9.418,5.754l0.43,4.981
		c-6.244,0.541-9.924-3.101-12.805-6.482c-0.269,1.389-0.602,2.745-0.93,4.082C256.841,124.556,256.204,127.149,256.203,129.72z"/>
</g>
<g id="text">
</g>
</svg>
