<svg viewBox="0 0 51 69" fill="none" xmlns="http://www.w3.org/2000/svg">
<path d="M39.634 18.054L50.084 11.03L41.538 20.276L39.634 18.054Z" fill="#72913C"/>
<path d="M30.809 11.732L35.509 0.0510254L33.632 12.502L30.809 11.732Z" fill="#72913C"/>
<path d="M18.663 13.45L16.38 1.06799L21.46 12.59L18.663 13.45Z" fill="#72913C"/>
<path d="M10.976 21.144L0.233032 14.577L12.202 18.486L10.976 21.144Z" fill="#72913C"/>
<path d="M26.08 38.643C32.4965 38.643 37.698 33.4415 37.698 27.025C37.698 20.6086 32.4965 15.407 26.08 15.407C19.6636 15.407 14.462 20.6086 14.462 27.025C14.462 33.4415 19.6636 38.643 26.08 38.643Z" fill="#72913C"/>
<path d="M39.077 40.233H33.636L27.8521 53.336L27.207 45.573C28.102 45.24 28.761 44.165 28.761 42.876C28.761 41.321 27.808 40.062 26.633 40.062H25.5291C24.3541 40.062 23.401 41.322 23.401 42.876C23.401 44.165 24.06 45.24 24.954 45.573L24.3091 53.335L18.525 40.233H13.0851C10.0111 40.233 7.51904 43.442 7.51904 47.4V68.972H44.644V47.4C44.643 43.442 42.151 40.233 39.077 40.233Z" fill="#72913C"/>
</svg>
