<?xml version="1.0" encoding="utf-8"?>
<!-- Generator: Adobe Illustrator 15.0.0, SVG Export Plug-In . SVG Version: 6.00 Build 0)  -->
<!DOCTYPE svg PUBLIC "-//W3C//DTD SVG 1.1//EN" "http://www.w3.org/Graphics/SVG/1.1/DTD/svg11.dtd">
<svg version="1.1" xmlns="http://www.w3.org/2000/svg" xmlns:xlink="http://www.w3.org/1999/xlink" x="0px" y="0px" width="792px"
	 height="612px" viewBox="0 0 792 612" enable-background="new 0 0 792 612" xml:space="preserve">
<g id="back">
</g>
<g id="Layer_1">
	<polygon fill="#72913C" points="216.634,385.054 227.084,378.03 218.538,387.276 	"/>
	<polygon fill="#72913C" points="207.809,378.732 212.509,367.051 210.632,379.502 	"/>
	<polygon fill="#72913C" points="195.663,380.45 193.38,368.068 198.46,379.59 	"/>
	<polygon fill="#72913C" points="187.976,388.144 177.233,381.577 189.202,385.486 	"/>
	<circle fill="#72913C" cx="203.08" cy="394.025" r="11.618"/>
	<path fill="#72913C" d="M216.077,407.233h-5.441l-5.784,13.103l-0.645-7.763c0.895-0.333,1.554-1.408,1.554-2.697
		c0-1.555-0.953-2.814-2.128-2.814h-1.104c-1.175,0-2.128,1.26-2.128,2.814c0,1.289,0.659,2.364,1.553,2.697l-0.645,7.762
		l-5.784-13.102h-5.44c-3.074,0-5.566,3.209-5.566,7.167v21.572h37.125V414.4C221.643,410.442,219.151,407.233,216.077,407.233z"/>
</g>
<g id="text">
</g>
</svg>
