<?xml version="1.0" encoding="utf-8"?>
<!-- Generator: Adobe Illustrator 15.0.0, SVG Export Plug-In . SVG Version: 6.00 Build 0)  -->
<!DOCTYPE svg PUBLIC "-//W3C//DTD SVG 1.1//EN" "http://www.w3.org/Graphics/SVG/1.1/DTD/svg11.dtd">
<svg version="1.1" xmlns="http://www.w3.org/2000/svg" xmlns:xlink="http://www.w3.org/1999/xlink" x="0px" y="0px" viewBox="0 0 108 108" enable-background="new 0 0 108 108" xml:space="preserve">
<g id="Layer_2">
</g>
<g id="Layer_1">
	<polygon fill="#72913C" points="42.301,20.044 52.75,13.021 44.204,22.267 	"/>
	<polygon fill="#72913C" points="33.475,13.723 38.175,2.041 36.299,14.492 	"/>
	<polygon fill="#72913C" points="21.33,15.44 19.046,3.059 24.126,14.58 	"/>
	<polygon fill="#72913C" points="13.643,23.134 2.9,16.567 14.869,20.477 	"/>
	<circle fill="#72913C" cx="28.747" cy="29.016" r="11.618"/>
	<path fill="#72913C" d="M41.743,42.224h-5.44l-5.784,13.103l-0.645-7.763c0.895-0.333,1.554-1.408,1.554-2.697
		c0-1.555-0.953-2.814-2.128-2.814h-1.105c-1.175,0-2.127,1.26-2.127,2.814c0,1.289,0.658,2.364,1.553,2.697l-0.645,7.762
		l-5.784-13.102h-5.44c-3.074,0-5.566,3.209-5.566,7.167v21.572h37.125V49.391C47.309,45.433,44.817,42.224,41.743,42.224z"/>
</g>
</svg>
