<svg width="51" height="49" viewBox="0 0 51 49" fill="none" xmlns="http://www.w3.org/2000/svg">
<path d="M28.179 22.069H5.78403C3.13503 22.069 0.988037 24.834 0.988037 28.244V46.831H32.975V28.244C32.976 24.834 30.828 22.069 28.179 22.069Z" fill="#72913C"/>
<path d="M17.353 20.6989C22.8814 20.6989 27.363 16.2173 27.363 10.689C27.363 5.16059 22.8814 0.678955 17.353 0.678955C11.8246 0.678955 7.34302 5.16059 7.34302 10.689C7.34302 16.2173 11.8246 20.6989 17.353 20.6989Z" fill="#72913C"/>
<path d="M34.45 46.427C42.1544 46.427 48.4 40.1814 48.4 32.477C48.4 24.7726 42.1544 18.527 34.45 18.527C26.7456 18.527 20.5 24.7726 20.5 32.477C20.5 40.1814 26.7456 46.427 34.45 46.427Z" fill="white" stroke="#72913C" stroke-width="4" stroke-miterlimit="10"/>
<path d="M34.802 32.472C34.802 33.145 34.447 33.693 34.009 33.693C33.571 33.693 33.217 33.145 33.217 32.472V24.835C33.217 24.161 33.571 23.615 34.009 23.615C34.447 23.615 34.802 24.161 34.802 24.835V32.472Z" fill="#72913C"/>
<path d="M34.742 33.9979C34.069 33.9979 33.522 33.644 33.522 33.205C33.522 32.767 34.069 32.413 34.742 32.413H42.379C43.052 32.413 43.599 32.767 43.599 33.205C43.599 33.643 43.052 33.9979 42.379 33.9979H34.742Z" fill="#72913C"/>
</svg>
