<?xml version="1.0" encoding="utf-8"?>
<!-- Generator: Adobe Illustrator 15.0.0, SVG Export Plug-In . SVG Version: 6.00 Build 0)  -->
<!DOCTYPE svg PUBLIC "-//W3C//DTD SVG 1.1//EN" "http://www.w3.org/Graphics/SVG/1.1/DTD/svg11.dtd">
<svg version="1.1" xmlns="http://www.w3.org/2000/svg" xmlns:xlink="http://www.w3.org/1999/xlink" x="0px" y="0px" width="792px"
	 height="612px" viewBox="0 0 792 612" enable-background="new 0 0 792 612" xml:space="preserve">
<g id="back">
</g>
<g id="Layer_1">
	<g>
		<path fill="#72913C" d="M239.179,517.069h-22.395c-2.649,0-4.796,2.765-4.796,6.175v18.587h31.987v-18.587
			C243.976,519.834,241.828,517.069,239.179,517.069z"/>
		<circle fill="#72913C" cx="228.353" cy="505.689" r="10.01"/>
	</g>
	<circle fill="#FFFFFF" stroke="#72913C" stroke-width="4" stroke-miterlimit="10" cx="245.45" cy="527.477" r="13.95"/>
	<path fill="#72913C" d="M245.802,527.472c0,0.673-0.355,1.221-0.793,1.221l0,0c-0.438,0-0.792-0.548-0.792-1.221v-7.637
		c0-0.674,0.354-1.22,0.792-1.22l0,0c0.438,0,0.793,0.546,0.793,1.22V527.472z"/>
	<path fill="#72913C" d="M245.742,528.998c-0.673,0-1.22-0.354-1.22-0.793l0,0c0-0.438,0.547-0.792,1.22-0.792h7.637
		c0.673,0,1.22,0.354,1.22,0.792l0,0c0,0.438-0.547,0.793-1.22,0.793H245.742z"/>
</g>
<g id="text">
</g>
</svg>
