<svg width="53" height="62" viewBox="0 0 53 62" fill="none" xmlns="http://www.w3.org/2000/svg">
<path d="M27.4869 16.217C22.1419 11.405 13.8789 11.837 9.06692 17.183C4.25492 22.528 4.68794 30.79 10.0319 35.603C14.5399 39.663 21.1189 39.975 25.9569 36.77L30.3509 40.726C30.3819 42.063 30.9359 43.385 32.0079 44.349L45.5069 54.116C47.5709 55.975 49.5629 57.127 51.4219 55.063C53.2809 52.999 51.9259 51.138 49.8619 49.28L38.7379 36.876C37.7349 35.975 36.4699 35.553 35.2199 35.591L30.5819 31.415C32.9339 26.354 31.8439 20.14 27.4869 16.217ZM13.2059 32.078C9.80492 29.016 9.52893 23.756 12.5909 20.355C15.6529 16.954 20.9119 16.678 24.3129 19.741C27.7139 22.804 27.9899 28.062 24.9269 31.464C21.8659 34.864 16.6069 35.141 13.2059 32.078Z" fill="#72913C"/>
<path d="M16.2729 14.409H4.75195C2.43395 14.409 0.554932 15.335 0.554932 16.476V40.291C0.554932 41.36 2.20295 42.239 4.31595 42.347V59.203C4.31595 60.345 5.48495 61.269 6.92795 61.269H14.0979C15.5399 61.269 16.709 60.344 16.709 59.203V42.347C18.822 42.24 20.4709 41.361 20.4709 40.291V16.476C20.4699 15.335 18.5909 14.409 16.2729 14.409Z" fill="#72913C"/>
<path d="M10.5119 12.577C13.9339 12.577 16.7079 9.80297 16.7079 6.38101C16.7079 2.95906 13.9339 0.184998 10.5119 0.184998C7.08995 0.184998 4.31592 2.95906 4.31592 6.38101C4.31592 9.80297 7.08995 12.577 10.5119 12.577Z" fill="#72913C"/>
<path d="M19.2168 34.368C23.8654 34.368 27.6338 30.5996 27.6338 25.951C27.6338 21.3024 23.8654 17.534 19.2168 17.534C14.5682 17.534 10.7998 21.3024 10.7998 25.951C10.7998 30.5996 14.5682 34.368 19.2168 34.368Z" fill="white"/>
</svg>
