<?xml version="1.0" encoding="utf-8"?>
<!-- Generator: Adobe Illustrator 15.0.0, SVG Export Plug-In . SVG Version: 6.00 Build 0)  -->
<!DOCTYPE svg PUBLIC "-//W3C//DTD SVG 1.1//EN" "http://www.w3.org/Graphics/SVG/1.1/DTD/svg11.dtd">
<svg version="1.1" xmlns="http://www.w3.org/2000/svg" xmlns:xlink="http://www.w3.org/1999/xlink" x="0px" y="0px" width="792px"
	 height="612px" viewBox="0 0 792 612" enable-background="new 0 0 792 612" xml:space="preserve">
<g id="back">
</g>
<g id="Layer_1">
	<path fill="#72913C" d="M350.487,503.217c-5.345-4.812-13.608-4.38-18.42,0.966c-4.812,5.345-4.379,13.607,0.965,18.42
		c4.508,4.06,11.087,4.372,15.925,1.167l4.394,3.956c0.031,1.337,0.585,2.659,1.657,3.623l13.499,9.767
		c2.064,1.859,4.056,3.011,5.915,0.947s0.504-3.925-1.56-5.783l-11.124-12.404c-1.003-0.901-2.268-1.323-3.518-1.285l-4.638-4.176
		C355.934,513.354,354.844,507.14,350.487,503.217z M336.206,519.078c-3.401-3.062-3.677-8.322-0.615-11.723
		c3.062-3.401,8.321-3.677,11.722-0.614s3.677,8.321,0.614,11.723C344.866,521.864,339.607,522.141,336.206,519.078z"/>
	<g>
		<path fill="#72913C" d="M339.273,501.409h-11.521c-2.318,0-4.197,0.926-4.197,2.067v23.815c0,1.069,1.648,1.948,3.761,2.056
			v16.856c0,1.142,1.169,2.066,2.612,2.066h7.17c1.442,0,2.611-0.925,2.611-2.066v-16.856c2.113-0.107,3.762-0.986,3.762-2.056
			v-23.815C343.47,502.335,341.591,501.409,339.273,501.409z"/>
		<circle fill="#72913C" cx="333.512" cy="493.381" r="6.196"/>
	</g>
	<circle fill="#FFFFFF" cx="342.217" cy="512.951" r="8.417"/>
</g>
<g id="text">
</g>
</svg>
