<?xml version="1.0" encoding="utf-8"?>
<!-- Generator: Adobe Illustrator 15.0.0, SVG Export Plug-In . SVG Version: 6.00 Build 0)  -->
<!DOCTYPE svg PUBLIC "-//W3C//DTD SVG 1.1//EN" "http://www.w3.org/Graphics/SVG/1.1/DTD/svg11.dtd">
<svg version="1.1" xmlns="http://www.w3.org/2000/svg" xmlns:xlink="http://www.w3.org/1999/xlink" x="0px" y="0px" viewBox="0 0 108 108" enable-background="new 0 0 108 108" xml:space="preserve">
<g id="Layer_2">
</g>
<g id="Layer_1">
	<path fill="#72913C" d="M30.819,19.87c-5.344-4.812-13.607-4.38-18.42,0.966c-4.812,5.345-4.379,13.607,0.965,18.42
		c4.508,4.06,11.088,4.372,15.926,1.167l4.395,3.956c0.03,1.337,0.584,2.659,1.656,3.623l13.5,9.767
		c2.064,1.859,4.056,3.011,5.914,0.947c1.859-2.063,0.504-3.925-1.56-5.783L42.071,40.528c-1.003-0.901-2.268-1.323-3.518-1.285
		l-4.639-4.176C36.267,30.008,35.177,23.793,30.819,19.87z M16.539,35.731c-3.401-3.062-3.677-8.322-0.614-11.723
		c3.062-3.401,8.32-3.677,11.721-0.614c3.401,3.062,3.678,8.321,0.615,11.723C25.198,38.518,19.94,38.794,16.539,35.731z"/>
	<g>
		<path fill="#72913C" d="M19.606,18.062H8.085c-2.318,0-4.197,0.926-4.197,2.067v23.815c0,1.069,1.648,1.948,3.761,2.056v16.856
			c0,1.142,1.169,2.066,2.612,2.066h7.17c1.441,0,2.611-0.925,2.611-2.066V46.001c2.113-0.107,3.762-0.986,3.762-2.056V20.13
			C23.804,18.988,21.924,18.062,19.606,18.062z"/>
		<circle fill="#72913C" cx="13.845" cy="10.034" r="6.196"/>
	</g>
	<circle fill="#FFFFFF" cx="22.55" cy="29.604" r="8.418"/>
</g>
</svg>
