<?xml version="1.0" encoding="utf-8"?>
<!-- Generator: Adobe Illustrator 15.0.0, SVG Export Plug-In . SVG Version: 6.00 Build 0)  -->
<!DOCTYPE svg PUBLIC "-//W3C//DTD SVG 1.1//EN" "http://www.w3.org/Graphics/SVG/1.1/DTD/svg11.dtd">
<svg version="1.1" xmlns="http://www.w3.org/2000/svg" xmlns:xlink="http://www.w3.org/1999/xlink" x="0px" y="0px" width="792px"
	 height="612px" viewBox="0 0 792 612" enable-background="new 0 0 792 612" xml:space="preserve">
<g id="back">
</g>
<g id="Layer_1">
	<path fill="#72913C" d="M149.168,251.591c0-3.089-2.273-5.594-5.078-5.594H55.502c-2.804,0-5.078,2.505-5.078,5.594v108.817
		c0,3.09,2.274,5.595,5.078,5.595h88.588c2.805,0,5.078-2.505,5.078-5.595V251.591z"/>
	<path fill="#FFFFFF" d="M104.759,289.671c-6.762-6.088-17.215-5.54-23.303,1.222s-5.54,17.215,1.221,23.303
		c5.703,5.135,14.025,5.531,20.146,1.476l5.559,5.005c0.039,1.691,0.74,3.364,2.097,4.584l17.077,12.355
		c2.611,2.352,5.131,3.809,7.482,1.198c2.352-2.611,0.638-4.966-1.974-7.316l-14.072-15.692c-1.269-1.141-2.869-1.674-4.45-1.625
		l-5.867-5.283C111.649,302.496,110.271,294.634,104.759,289.671z M86.692,309.736c-4.303-3.874-4.651-10.527-0.777-14.829
		c3.874-4.303,10.526-4.651,14.828-0.777c4.303,3.874,4.652,10.526,0.777,14.829C97.647,313.262,90.995,313.61,86.692,309.736z"/>
	<polygon fill="#FFFFFF" points="93.473,282.206 95.135,268.002 96.796,282.206 	"/>
	<polygon fill="#FFFFFF" points="81.501,285.148 74.897,272.464 84.25,283.281 	"/>
	<polygon fill="#FFFFFF" points="74.009,296.894 61.642,289.715 75.333,293.846 	"/>
	<polygon fill="#FFFFFF" points="74.967,309.208 61.366,313.623 73.58,306.188 	"/>
</g>
<g id="text">
</g>
</svg>
