<?xml version="1.0" encoding="utf-8"?>
<!-- Generator: Adobe Illustrator 15.0.0, SVG Export Plug-In . SVG Version: 6.00 Build 0)  -->
<!DOCTYPE svg PUBLIC "-//W3C//DTD SVG 1.1//EN" "http://www.w3.org/Graphics/SVG/1.1/DTD/svg11.dtd">
<svg version="1.1" id="Layer_1" xmlns="http://www.w3.org/2000/svg" xmlns:xlink="http://www.w3.org/1999/xlink" x="0px" y="0px"
	  viewBox="0 0 108 108" enable-background="new 0 0 108 108" xml:space="preserve">
<path fill="#72913C" d="M84.598,6.634c0-2.558-1.882-4.631-4.204-4.631H7.058c-2.322,0-4.204,2.074-4.204,4.631v90.083
	c0,2.558,1.882,4.632,4.204,4.632h73.336c2.322,0,4.204-2.074,4.204-4.632V6.634z"/>
<path fill="#FFFFFF" d="M47.833,38.158c-5.597-5.04-14.25-4.586-19.29,1.011c-5.04,5.597-4.586,14.251,1.01,19.291
	c4.721,4.251,11.611,4.579,16.678,1.222l4.602,4.144c0.032,1.399,0.613,2.784,1.736,3.794l14.136,10.229
	c2.162,1.947,4.248,3.153,6.194,0.992c1.947-2.162,0.529-4.111-1.633-6.057L59.617,59.792c-1.051-0.944-2.375-1.386-3.685-1.345
	l-4.857-4.374C53.538,48.775,52.396,42.266,47.833,38.158z M32.877,54.769c-3.562-3.207-3.851-8.715-0.644-12.276
	c3.207-3.562,8.714-3.851,12.275-0.644c3.562,3.207,3.851,8.714,0.644,12.276C41.947,57.688,36.439,57.976,32.877,54.769z"/>
<polygon fill="#FFFFFF" points="38.491,31.978 39.867,20.22 41.243,31.978 "/>
<polygon fill="#FFFFFF" points="28.581,34.414 23.113,23.913 30.855,32.868 "/>
<polygon fill="#FFFFFF" points="22.378,44.137 12.14,38.194 23.474,41.614 "/>
<polygon fill="#FFFFFF" points="23.171,54.331 11.912,57.986 22.023,51.831 "/>
</svg>
