<svg viewBox="0 0 100 122" fill="none" xmlns="http://www.w3.org/2000/svg">
<path d="M99.168 6.59096C99.168 3.50196 96.895 0.996948 94.09 0.996948H5.50195C2.69795 0.996948 0.42395 3.50196 0.42395 6.59096V115.408C0.42395 118.498 2.69795 121.003 5.50195 121.003H94.09C96.895 121.003 99.168 118.498 99.168 115.408V6.59096Z" fill="#72913C"/>
<path d="M54.7589 44.6709C47.9969 38.5829 37.5439 39.1309 31.4559 45.8929C25.3679 52.6549 25.9159 63.1079 32.6769 69.1959C38.3799 74.3309 46.7019 74.7269 52.8229 70.6719L58.3819 75.6769C58.4209 77.3679 59.1219 79.0409 60.4789 80.2609L77.5559 92.6159C80.1669 94.9679 82.6869 96.4249 85.0379 93.8139C87.3899 91.2029 85.6759 88.8479 83.0639 86.4979L68.9919 70.8059C67.7229 69.6649 66.1229 69.1319 64.5419 69.1809L58.6749 63.8979C61.6489 57.4959 60.2709 49.6339 54.7589 44.6709ZM36.6919 64.7359C32.3889 60.8619 32.0409 54.2089 35.9149 49.9069C39.7889 45.6039 46.4409 45.2559 50.7429 49.1299C55.0459 53.0039 55.3949 59.6559 51.5199 63.9589C47.6469 68.2619 40.9949 68.6099 36.6919 64.7359Z" fill="white"/>
<path d="M43.4729 37.2059L45.1349 23.002L46.7959 37.2059H43.4729Z" fill="white"/>
<path d="M31.501 40.148L24.897 27.464L34.25 38.281L31.501 40.148Z" fill="white"/>
<path d="M24.009 51.894L11.642 44.715L25.333 48.846L24.009 51.894Z" fill="white"/>
<path d="M24.967 64.208L11.366 68.623L23.58 61.188L24.967 64.208Z" fill="white"/>
</svg>
