<svg viewBox="0 0 69 50" fill="none" xmlns="http://www.w3.org/2000/svg">
<path d="M39.8811 8.91699H0.931152V14.794H39.8811V8.91699Z" fill="#72913C"/>
<path d="M39.8811 44.157H0.931152V49.664H39.8811V44.157Z" fill="#72913C"/>
<path d="M4.68304 14.3881H3.21509V45.2181H4.68304V14.3881Z" fill="#72913C"/>
<path d="M37.2261 14.3881H35.7581V45.2181H37.2261V14.3881Z" fill="#72913C"/>
<path d="M32.9032 18.384H8.10815V19.6891H32.9032V18.384Z" fill="#72913C"/>
<path d="M32.9032 23.522H8.10815V24.827H32.9032V23.522Z" fill="#72913C"/>
<path d="M32.9032 28.661H8.10815V29.966H32.9032V28.661Z" fill="#72913C"/>
<path d="M32.9032 33.8H8.10815V35.105H32.9032V33.8Z" fill="#72913C"/>
<path d="M32.9032 38.938H8.10815V40.243H32.9032V38.938Z" fill="#72913C"/>
<path d="M48.8571 36.979C58.3829 36.979 66.1051 29.2569 66.1051 19.731C66.1051 10.2052 58.3829 2.48303 48.8571 2.48303C39.3313 2.48303 31.6091 10.2052 31.6091 19.731C31.6091 29.2569 39.3313 36.979 48.8571 36.979Z" fill="white" stroke="#72913C" stroke-width="4" stroke-miterlimit="10"/>
<path d="M49.2921 19.726C49.2921 20.558 48.8541 21.235 48.3121 21.235C47.7721 21.235 47.332 20.558 47.332 19.726V10.285C47.332 9.45197 47.7721 8.776 48.3121 8.776C48.8541 8.776 49.2921 9.45197 49.2921 10.285V19.726Z" fill="#72913C"/>
<path d="M49.219 21.6121C48.387 21.6121 47.709 21.1741 47.709 20.6331C47.709 20.0911 48.387 19.6531 49.219 19.6531H58.66C59.492 19.6531 60.168 20.0911 60.168 20.6331C60.168 21.1741 59.492 21.6121 58.66 21.6121H49.219Z" fill="#72913C"/>
</svg>
