<?xml version="1.0" encoding="utf-8"?>
<!-- Generator: Adobe Illustrator 15.0.0, SVG Export Plug-In . SVG Version: 6.00 Build 0)  -->
<!DOCTYPE svg PUBLIC "-//W3C//DTD SVG 1.1//EN" "http://www.w3.org/Graphics/SVG/1.1/DTD/svg11.dtd">
<svg version="1.1" xmlns="http://www.w3.org/2000/svg" xmlns:xlink="http://www.w3.org/1999/xlink" x="0px" y="0px" viewBox="0 0 72 72" enable-background="new 0 0 108 108" xml:space="preserve">
<g id="Layer_2">
</g>
<g id="Layer_1">
	<rect x="8.454" y="13.434" fill="#FFFFFF" width="33.277" height="33.362"/>
	<rect x="5.436" y="10.496" fill="#72913C" width="38.95" height="5.877"/>
	<rect x="5.436" y="45.736" fill="#72913C" width="38.95" height="5.507"/>
	<rect x="7.72" y="15.966" fill="#72913C" width="1.468" height="30.83"/>
	<rect x="40.263" y="15.966" fill="#72913C" width="1.468" height="30.83"/>
	<rect x="12.614" y="19.962" fill="#72913C" width="24.795" height="1.305"/>
	<rect x="12.614" y="25.101" fill="#72913C" width="24.795" height="1.305"/>
	<rect x="12.614" y="30.24" fill="#72913C" width="24.795" height="1.305"/>
	<rect x="12.614" y="35.378" fill="#72913C" width="24.795" height="1.305"/>
	<rect x="12.614" y="40.517" fill="#72913C" width="24.795" height="1.305"/>
	<circle fill="#FFFFFF" stroke="#72913C" stroke-width="4" stroke-miterlimit="10" cx="53.362" cy="21.31" r="17.247"/>
	<path fill="#72913C" d="M53.797,21.304c0,0.832-0.438,1.509-0.98,1.509l0,0c-0.539,0-0.98-0.677-0.98-1.509v-9.441
		c0-0.833,0.441-1.509,0.98-1.509l0,0c0.543,0,0.98,0.676,0.98,1.509V21.304z"/>
	<path fill="#72913C" d="M53.725,23.191c-0.832,0-1.51-0.438-1.51-0.979l0,0c0-0.542,0.678-0.98,1.51-0.98h9.441
		c0.832,0,1.508,0.438,1.508,0.98l0,0c0,0.541-0.676,0.979-1.508,0.979H53.725z"/>
</g>
</svg>
