<?xml version="1.0" encoding="utf-8"?>
<!-- Generator: Adobe Illustrator 15.0.0, SVG Export Plug-In . SVG Version: 6.00 Build 0)  -->
<!DOCTYPE svg PUBLIC "-//W3C//DTD SVG 1.1//EN" "http://www.w3.org/Graphics/SVG/1.1/DTD/svg11.dtd">
<svg version="1.1" xmlns="http://www.w3.org/2000/svg" xmlns:xlink="http://www.w3.org/1999/xlink" x="0px" y="0px" width="792px"
	 height="612px" viewBox="0 0 792 612" enable-background="new 0 0 792 612" xml:space="preserve">
<g id="back">
</g>
<g id="Layer_1">
	<rect x="547.931" y="516.917" fill="#72913C" width="38.95" height="5.877"/>
	<rect x="547.931" y="552.157" fill="#72913C" width="38.95" height="5.507"/>
	<rect x="550.215" y="522.388" fill="#72913C" width="1.468" height="30.83"/>
	<rect x="582.758" y="522.388" fill="#72913C" width="1.468" height="30.83"/>
	<rect x="555.108" y="526.384" fill="#72913C" width="24.795" height="1.305"/>
	<rect x="555.108" y="531.522" fill="#72913C" width="24.795" height="1.305"/>
	<rect x="555.108" y="536.661" fill="#72913C" width="24.795" height="1.305"/>
	<rect x="555.108" y="541.8" fill="#72913C" width="24.795" height="1.305"/>
	<rect x="555.108" y="546.938" fill="#72913C" width="24.795" height="1.305"/>
	<circle fill="#FFFFFF" stroke="#72913C" stroke-width="4" stroke-miterlimit="10" cx="595.857" cy="527.731" r="17.248"/>
	<path fill="#72913C" d="M596.292,527.726c0,0.832-0.438,1.509-0.98,1.509l0,0c-0.54,0-0.98-0.677-0.98-1.509v-9.441
		c0-0.833,0.44-1.509,0.98-1.509l0,0c0.542,0,0.98,0.676,0.98,1.509V527.726z"/>
	<path fill="#72913C" d="M596.219,529.612c-0.832,0-1.51-0.438-1.51-0.979l0,0c0-0.542,0.678-0.98,1.51-0.98h9.441
		c0.832,0,1.508,0.438,1.508,0.98l0,0c0,0.541-0.676,0.979-1.508,0.979H596.219z"/>
</g>
<g id="text">
</g>
</svg>
