<svg width="60" height="51" viewBox="0 0 60 51" fill="none" xmlns="http://www.w3.org/2000/svg">
<path d="M55.594 20.759H34.546C32.246 20.759 30.374 22.631 30.374 24.932V37.476C30.374 39.777 32.246 41.648 34.546 41.648H46.881L56.78 50.132L57.35 41.245C58.788 40.572 59.766 39.121 59.766 37.475V24.931C59.767 22.631 57.895 20.759 55.594 20.759ZM54.444 44.593L48.066 39.127V38.962H34.545C33.726 38.962 33.059 38.295 33.059 37.476V24.932C33.059 24.112 33.726 23.445 34.545 23.445H55.593C56.412 23.445 57.08 24.112 57.08 24.932V37.476C57.08 38.183 56.577 38.796 55.885 38.934L55.899 39.004L54.806 38.934L54.444 44.593Z" fill="#72913C"/>
<path d="M57.487 22.48H32.17L31.854 37.405L32.802 40.09L46.137 40.011L50.885 43.723L55.86 47.039L56.491 40.327L58.308 38.274L57.487 22.48Z" fill="#72913C"/>
<path d="M41.4879 3.60706H3.83496V28.8771H41.4879V3.60706Z" fill="white"/>
<path d="M38.668 0.759033H6.71002C3.21702 0.759033 0.374023 3.60203 0.374023 7.09503V26.141C0.374023 28.639 1.85803 30.842 4.04303 31.865L4.90802 45.358L19.939 32.476H38.668C42.16 32.476 45.002 29.634 45.002 26.141V7.09503C45.002 3.60203 42.16 0.759033 38.668 0.759033ZM40.925 26.141C40.925 27.385 39.912 28.398 38.668 28.398H18.139V28.649L8.45502 36.948L7.90503 28.355L6.245 28.462L6.26599 28.355C5.21399 28.146 4.45099 27.214 4.45099 26.141V7.09503C4.45099 5.85003 5.46602 4.83603 6.71002 4.83603H38.668C39.912 4.83603 40.925 5.85003 40.925 7.09503V26.141Z" fill="#72913C"/>
<path d="M27.8909 19.402C27.8909 19.932 27.7819 20.434 27.5609 20.906C27.3389 21.381 27.034 21.794 26.642 22.146C26.246 22.505 25.7589 22.804 25.1859 23.04C24.6119 23.276 23.9649 23.414 23.2469 23.452V26.877H21.6939V23.499C21.0129 23.492 20.256 23.408 19.424 23.244C18.591 23.08 17.9319 22.875 17.4459 22.629V19.885H17.7479C18.0519 20.08 18.5979 20.307 19.3859 20.562C20.1739 20.818 20.96 20.961 21.741 20.993V18.372L20.8979 18.164C20.4139 18.044 19.95 17.899 19.507 17.729C19.067 17.558 18.6679 17.325 18.3159 17.029C17.9689 16.739 17.6959 16.387 17.4979 15.973C17.2999 15.56 17.2 15.03 17.2 14.38C17.2 13.434 17.5959 12.627 18.3879 11.962C19.1799 11.296 20.2819 10.895 21.6939 10.755V8.55103H23.2469V10.737C23.8139 10.756 24.466 10.84 25.2 10.988C25.935 11.136 26.4989 11.296 26.8879 11.466V14.192H26.585C26.125 13.908 25.6229 13.683 25.0819 13.519C24.5379 13.355 23.9119 13.254 23.1979 13.216V15.62L24.03 15.799C25.342 16.083 26.3139 16.498 26.9449 17.043C27.5749 17.588 27.8909 18.375 27.8909 19.402ZM21.8079 15.438V13.224C21.4549 13.256 21.15 13.36 20.89 13.536C20.631 13.713 20.502 13.968 20.502 14.303C20.502 14.574 20.5779 14.798 20.7289 14.974C20.8799 15.151 21.2399 15.306 21.8079 15.438ZM24.5419 19.772C24.5419 19.457 24.4299 19.197 24.2059 18.995C23.9819 18.795 23.6239 18.645 23.1329 18.551V20.974C23.5289 20.936 23.8629 20.824 24.1359 20.638C24.4049 20.451 24.5419 20.163 24.5419 19.772Z" fill="#72913C"/>
</svg>
