<?xml version="1.0" encoding="utf-8"?>
<!-- Generator: Adobe Illustrator 15.0.0, SVG Export Plug-In . SVG Version: 6.00 Build 0)  -->
<!DOCTYPE svg PUBLIC "-//W3C//DTD SVG 1.1//EN" "http://www.w3.org/Graphics/SVG/1.1/DTD/svg11.dtd">
<svg version="1.1" xmlns="http://www.w3.org/2000/svg" xmlns:xlink="http://www.w3.org/1999/xlink" x="0px" y="0px" width="792px"
	 height="612px" viewBox="0 0 792 612" enable-background="new 0 0 792 612" xml:space="preserve">
<g id="back">
</g>
<g id="Layer_1">
	<g>
		<g>
			<path fill="#72913C" d="M757.594,404.759h-21.048c-2.3,0-4.172,1.872-4.172,4.173v12.544c0,2.301,1.872,4.172,4.172,4.172h12.335
				l9.899,8.484l0.57-8.887c1.438-0.673,2.416-2.124,2.416-3.77v-12.544C761.767,406.631,759.895,404.759,757.594,404.759z
				 M756.444,428.593l-6.378-5.466v-0.165h-13.521c-0.819,0-1.486-0.667-1.486-1.486v-12.544c0-0.82,0.667-1.487,1.486-1.487h21.048
				c0.819,0,1.487,0.667,1.487,1.487v12.544c0,0.707-0.503,1.32-1.195,1.458l0.014,0.07l-1.093-0.07L756.444,428.593z"/>
		</g>
	</g>
	<polygon fill="#72913C" points="759.487,406.48 734.17,406.48 733.854,421.405 734.802,424.09 748.137,424.011 752.885,427.723 
		757.86,431.039 758.491,424.327 760.308,422.274 	"/>
	<rect x="705.835" y="387.607" fill="#FFFFFF" width="37.653" height="25.27"/>
	<g>
		<g>
			<path fill="#72913C" d="M740.668,384.759H708.71c-3.493,0-6.336,2.843-6.336,6.336v19.046c0,2.498,1.484,4.701,3.669,5.724
				l0.865,13.493l15.031-12.882h18.729c3.492,0,6.334-2.842,6.334-6.335v-19.046C747.002,387.602,744.16,384.759,740.668,384.759z
				 M742.925,410.141c0,1.244-1.013,2.257-2.257,2.257h-20.529v0.251l-9.684,8.299l-0.55-8.593l-1.66,0.107l0.021-0.107
				c-1.052-0.209-1.815-1.141-1.815-2.214v-19.046c0-1.245,1.015-2.259,2.259-2.259h31.958c1.244,0,2.257,1.014,2.257,2.259V410.141
				z"/>
		</g>
	</g>
	<g>
		<path fill="#72913C" d="M729.891,403.402c0,0.53-0.109,1.032-0.33,1.504c-0.222,0.475-0.527,0.888-0.919,1.24
			c-0.396,0.359-0.883,0.658-1.456,0.894c-0.574,0.236-1.221,0.374-1.939,0.412v3.425h-1.553v-3.378
			c-0.681-0.007-1.438-0.091-2.27-0.255c-0.833-0.164-1.492-0.369-1.978-0.615v-2.744h0.302c0.304,0.195,0.85,0.422,1.638,0.677
			c0.788,0.256,1.574,0.399,2.355,0.431v-2.621l-0.843-0.208c-0.484-0.12-0.948-0.265-1.391-0.435
			c-0.44-0.171-0.839-0.404-1.191-0.7c-0.347-0.29-0.62-0.642-0.818-1.056c-0.198-0.413-0.298-0.943-0.298-1.593
			c0-0.946,0.396-1.753,1.188-2.418c0.792-0.666,1.894-1.067,3.306-1.207v-2.204h1.553v2.186c0.567,0.019,1.219,0.103,1.953,0.251
			c0.735,0.148,1.299,0.308,1.688,0.478v2.726h-0.303c-0.46-0.284-0.962-0.509-1.503-0.673c-0.544-0.164-1.17-0.265-1.884-0.303
			v2.404l0.832,0.179c1.312,0.284,2.284,0.699,2.915,1.244C729.575,401.588,729.891,402.375,729.891,403.402z M723.808,399.438
			v-2.214c-0.353,0.032-0.658,0.136-0.918,0.312c-0.259,0.177-0.388,0.432-0.388,0.767c0,0.271,0.076,0.495,0.227,0.671
			C722.88,399.151,723.24,399.306,723.808,399.438z M726.542,403.772c0-0.315-0.112-0.575-0.336-0.777
			c-0.224-0.2-0.582-0.35-1.073-0.444v2.423c0.396-0.038,0.73-0.15,1.003-0.336C726.405,404.451,726.542,404.163,726.542,403.772z"
			/>
	</g>
</g>
<g id="text">
</g>
</svg>
