<svg width="107" height="90" viewBox="0 0 107 90" fill="none" xmlns="http://www.w3.org/2000/svg">
<path d="M18.453 86.196C18.453 88.292 16.754 89.992 14.657 89.992H3.797C1.7 89.992 0 88.292 0 86.196V55.041C0 52.945 1.7 51.245 3.797 51.245H14.657C16.754 51.245 18.453 52.945 18.453 55.041V86.196Z" fill="#72913C"/>
<path d="M44.523 85.205C44.523 87.849 42.823 89.993 40.726 89.993H29.866C27.769 89.993 26.069 87.849 26.069 85.205V45.91C26.069 43.265 27.769 41.122 29.866 41.122H40.726C42.823 41.122 44.523 43.266 44.523 45.91V85.205Z" fill="#72913C"/>
<path d="M70.5919 83.909C70.5919 87.268 68.892 89.992 66.796 89.992H55.9349C53.8379 89.992 52.1389 87.268 52.1389 83.909V33.981C52.1389 30.622 53.8379 27.898 55.9349 27.898H66.796C68.892 27.898 70.5919 30.622 70.5919 33.981V83.909Z" fill="#72913C"/>
<path d="M106.746 19.278L87.4341 0.788025L68.1221 19.278H78.7441C78.4051 20.367 78.207 21.635 78.207 22.995V82.715C78.207 86.734 79.9071 89.991 82.0031 89.991H92.8641C94.9611 89.991 96.66 86.733 96.66 82.715V22.995C96.66 21.635 96.462 20.367 96.123 19.278H106.746Z" fill="#72913C"/>
</svg>
