<?xml version="1.0" encoding="utf-8"?>
<!-- Generator: Adobe Illustrator 15.0.0, SVG Export Plug-In . SVG Version: 6.00 Build 0)  -->
<!DOCTYPE svg PUBLIC "-//W3C//DTD SVG 1.1//EN" "http://www.w3.org/Graphics/SVG/1.1/DTD/svg11.dtd">
<svg version="1.1" xmlns="http://www.w3.org/2000/svg" xmlns:xlink="http://www.w3.org/1999/xlink" x="0px" y="0px" viewBox="0 0 108 108" enable-background="new 0 0 108 108" xml:space="preserve">
<g id="Layer_2">
</g>
<g id="Layer_1">
	<path fill="#72913C" d="M17.751,51.775c0,1.07-0.868,1.937-1.938,1.937h-5.542c-1.07,0-1.938-0.867-1.938-1.937V35.876
		c0-1.07,0.868-1.937,1.938-1.937h5.542c1.07,0,1.938,0.867,1.938,1.937V51.775z"/>
	<path fill="#72913C" d="M31.056,51.27c0,1.349-0.868,2.443-1.938,2.443h-5.542c-1.07,0-1.938-1.094-1.938-2.443V31.216
		c0-1.35,0.868-2.443,1.938-2.443h5.542c1.07,0,1.938,1.094,1.938,2.443V51.27z"/>
	<path fill="#72913C" d="M44.359,50.608c0,1.714-0.867,3.104-1.937,3.104h-5.543c-1.07,0-1.938-1.39-1.938-3.104v-25.48
		c0-1.715,0.868-3.104,1.938-3.104h5.543c1.07,0,1.937,1.39,1.937,3.104V50.608z"/>
	<path fill="#72913C" d="M62.811,17.625l-9.855-9.437L43.1,17.625h5.421c-0.173,0.556-0.274,1.203-0.274,1.897V50
		c0,2.051,0.868,3.713,1.938,3.713h5.543c1.069,0,1.938-1.662,1.938-3.713V19.522c0-0.694-0.102-1.341-0.274-1.897H62.811z"/>
</g>
</svg>
