<?xml version="1.0" encoding="utf-8"?>
<!-- Generator: Adobe Illustrator 15.0.0, SVG Export Plug-In . SVG Version: 6.00 Build 0)  -->
<!DOCTYPE svg PUBLIC "-//W3C//DTD SVG 1.1//EN" "http://www.w3.org/Graphics/SVG/1.1/DTD/svg11.dtd">
<svg version="1.1" xmlns="http://www.w3.org/2000/svg" xmlns:xlink="http://www.w3.org/1999/xlink" x="0px" y="0px" width="792px"
	 height="612px" viewBox="0 0 792 612" enable-background="new 0 0 792 612" xml:space="preserve">
<g id="back">
</g>
<g id="Layer_1">
	<path fill="#72913C" d="M661.453,164.196c0,2.096-1.699,3.796-3.796,3.796h-10.86c-2.097,0-3.797-1.7-3.797-3.796v-31.155
		c0-2.096,1.7-3.796,3.797-3.796h10.86c2.097,0,3.796,1.7,3.796,3.796V164.196z"/>
	<path fill="#72913C" d="M687.523,163.205c0,2.644-1.7,4.788-3.797,4.788h-10.86c-2.097,0-3.797-2.144-3.797-4.788V123.91
		c0-2.645,1.7-4.788,3.797-4.788h10.86c2.097,0,3.797,2.144,3.797,4.788V163.205z"/>
	<path fill="#72913C" d="M713.592,161.909c0,3.359-1.7,6.083-3.796,6.083h-10.861c-2.097,0-3.796-2.724-3.796-6.083v-49.928
		c0-3.359,1.699-6.083,3.796-6.083h10.861c2.096,0,3.796,2.724,3.796,6.083V161.909z"/>
	<path fill="#72913C" d="M749.746,97.278l-19.312-18.49l-19.312,18.49h10.622c-0.339,1.089-0.537,2.357-0.537,3.717v59.72
		c0,4.019,1.7,7.276,3.796,7.276h10.861c2.097,0,3.796-3.258,3.796-7.276v-59.72c0-1.36-0.198-2.628-0.537-3.717H749.746z"/>
</g>
<g id="text">
</g>
</svg>
