<svg width="66" height="66" viewBox="0 0 66 66" fill="none" xmlns="http://www.w3.org/2000/svg">
<path d="M33.041 65.332C36.7297 65.332 39.72 62.3417 39.72 58.653C39.72 54.9643 36.7297 51.974 33.041 51.974C29.3523 51.974 26.362 54.9643 26.362 58.653C26.362 62.3417 29.3523 65.332 33.041 65.332Z" fill="#72913C"/>
<path d="M7.17999 39.471C10.8687 39.471 13.859 36.4807 13.859 32.792C13.859 29.1033 10.8687 26.113 7.17999 26.113C3.49128 26.113 0.500977 29.1033 0.500977 32.792C0.500977 36.4807 3.49128 39.471 7.17999 39.471Z" fill="#72913C"/>
<path d="M52.223 58.654C55.9117 58.654 58.902 55.6637 58.902 51.975C58.902 48.2863 55.9117 45.296 52.223 45.296C48.5343 45.296 45.544 48.2863 45.544 51.975C45.544 55.6637 48.5343 58.654 52.223 58.654Z" fill="#72913C"/>
<path d="M13.858 58.655C17.5467 58.655 20.537 55.6647 20.537 51.976C20.537 48.2873 17.5467 45.297 13.858 45.297C10.1693 45.297 7.17902 48.2873 7.17902 51.976C7.17902 55.6647 10.1693 58.655 13.858 58.655Z" fill="#72913C"/>
<path d="M52.223 20.901C55.9117 20.901 58.902 17.9107 58.902 14.222C58.902 10.5332 55.9117 7.54297 52.223 7.54297C48.5343 7.54297 45.544 10.5332 45.544 14.222C45.544 17.9107 48.5343 20.901 52.223 20.901Z" fill="#72913C"/>
<path d="M58.901 39.472C62.5897 39.472 65.58 36.4817 65.58 32.793C65.58 29.1043 62.5897 26.114 58.901 26.114C55.2123 26.114 52.222 29.1043 52.222 32.793C52.222 36.4817 55.2123 39.472 58.901 39.472Z" fill="#72913C"/>
<path d="M13.858 20.901C17.5467 20.901 20.537 17.9107 20.537 14.222C20.537 10.5332 17.5467 7.54297 13.858 7.54297C10.1693 7.54297 7.17902 10.5332 7.17902 14.222C7.17902 17.9107 10.1693 20.901 13.858 20.901Z" fill="#72913C"/>
<path d="M33.041 13.611C36.7297 13.611 39.72 10.6207 39.72 6.93201C39.72 3.2433 36.7297 0.252991 33.041 0.252991C29.3523 0.252991 26.362 3.2433 26.362 6.93201C26.362 10.6207 29.3523 13.611 33.041 13.611Z" fill="#72913C"/>
<path d="M47.512 34.629C47.512 39.327 43.704 43.135 39.006 43.135H29.068C24.37 43.135 20.562 39.327 20.562 34.629V30.635C20.562 25.937 24.37 22.129 29.068 22.129H39.006C43.704 22.129 47.512 25.937 47.512 30.635V34.629Z" fill="#72913C"/>
</svg>
