<svg width="83" height="70" viewBox="0 0 83 70" fill="none" xmlns="http://www.w3.org/2000/svg">
<path d="M39.801 12.356L41.178 0.596008L42.554 12.356H39.801Z" fill="#72913C"/>
<path d="M36.508 14.812L32.301 3.74304L38.948 13.542L36.508 14.812Z" fill="#72913C"/>
<path d="M43.437 13.568L50.02 3.72601L45.886 14.821L43.437 13.568Z" fill="#72913C"/>
<path d="M39.801 57.71L41.178 69.471L42.554 57.71H39.801Z" fill="#72913C"/>
<path d="M36.508 55.255L32.301 66.323L38.948 56.524L36.508 55.255Z" fill="#72913C"/>
<path d="M43.437 56.499L50.02 66.342L45.886 55.245L43.437 56.499Z" fill="#72913C"/>
<path d="M38.047 31.014C38.047 29.465 37.397 28.07 36.359 27.078C37.396 26.086 38.047 24.691 38.047 23.142C38.047 20.132 35.607 17.692 32.597 17.692H15.037C14.462 17.692 13.907 17.783 13.387 17.948C12.503 17.782 11.568 17.692 10.598 17.692C5.24602 17.692 0.910034 20.403 0.910034 23.748V46.152C0.910034 49.496 5.24702 52.207 10.598 52.207C11.568 52.207 12.503 52.116 13.387 51.951C13.908 52.116 14.462 52.207 15.037 52.207H32.597C35.607 52.207 38.047 49.768 38.047 46.758C38.047 45.209 37.397 43.814 36.359 42.822C37.396 41.83 38.047 40.434 38.047 38.885C38.047 37.336 37.397 35.942 36.359 34.948C37.396 33.958 38.047 32.563 38.047 31.014Z" fill="#72913C"/>
<path d="M45.621 31.014C45.621 29.465 46.271 28.07 47.309 27.078C46.272 26.086 45.621 24.691 45.621 23.142C45.621 20.132 48.061 17.692 51.071 17.692H68.631C69.206 17.692 69.761 17.783 70.281 17.948C71.165 17.782 72.1 17.692 73.07 17.692C78.422 17.692 82.758 20.403 82.758 23.748V46.152C82.758 49.496 78.421 52.207 73.07 52.207C72.1 52.207 71.165 52.116 70.281 51.951C69.76 52.116 69.206 52.207 68.631 52.207H51.071C48.061 52.207 45.621 49.768 45.621 46.758C45.621 45.209 46.271 43.814 47.309 42.822C46.272 41.83 45.621 40.434 45.621 38.885C45.621 37.336 46.271 35.942 47.309 34.948C46.271 33.958 45.621 32.563 45.621 31.014Z" fill="#72913C"/>
</svg>
