<?xml version="1.0" encoding="utf-8"?>
<!-- Generator: Adobe Illustrator 15.0.0, SVG Export Plug-In . SVG Version: 6.00 Build 0)  -->
<!DOCTYPE svg PUBLIC "-//W3C//DTD SVG 1.1//EN" "http://www.w3.org/Graphics/SVG/1.1/DTD/svg11.dtd">
<svg version="1.1" xmlns="http://www.w3.org/2000/svg" xmlns:xlink="http://www.w3.org/1999/xlink" x="0px" y="0px" width="792px"
	 height="612px" viewBox="0 0 792 612" enable-background="new 0 0 792 612" xml:space="preserve">
<g id="back">
</g>
<g id="Layer_1">
	<g>
		<polygon fill="#72913C" points="462.801,286.356 464.178,274.596 465.554,286.356 		"/>
		<polygon fill="#72913C" points="459.508,288.812 455.301,277.743 461.948,287.542 		"/>
		<polygon fill="#72913C" points="466.437,287.568 473.02,277.726 468.886,288.821 		"/>
		<polygon fill="#72913C" points="462.801,331.71 464.178,343.471 465.554,331.71 		"/>
		<polygon fill="#72913C" points="459.508,329.255 455.301,340.323 461.948,330.524 		"/>
		<polygon fill="#72913C" points="466.437,330.499 473.02,340.342 468.886,329.245 		"/>
		<path fill="#72913C" d="M461.047,305.014c0-1.549-0.65-2.944-1.688-3.936c1.037-0.992,1.688-2.387,1.688-3.936
			c0-3.01-2.44-5.45-5.45-5.45h-17.56c-0.575,0-1.13,0.091-1.65,0.256c-0.884-0.166-1.819-0.256-2.789-0.256
			c-5.352,0-9.688,2.711-9.688,6.056v22.404c0,3.344,4.337,6.055,9.688,6.055c0.97,0,1.905-0.091,2.789-0.256
			c0.521,0.165,1.075,0.256,1.65,0.256h17.56c3.01,0,5.45-2.439,5.45-5.449c0-1.549-0.65-2.944-1.688-3.936
			c1.037-0.992,1.688-2.388,1.688-3.937s-0.65-2.943-1.688-3.937C460.396,307.958,461.047,306.563,461.047,305.014z"/>
		<path fill="#72913C" d="M468.621,305.014c0-1.549,0.65-2.944,1.688-3.936c-1.037-0.992-1.688-2.387-1.688-3.936
			c0-3.01,2.44-5.45,5.45-5.45h17.56c0.575,0,1.13,0.091,1.65,0.256c0.884-0.166,1.819-0.256,2.789-0.256
			c5.352,0,9.688,2.711,9.688,6.056v22.404c0,3.344-4.337,6.055-9.688,6.055c-0.97,0-1.905-0.091-2.789-0.256
			c-0.521,0.165-1.075,0.256-1.65,0.256h-17.56c-3.01,0-5.45-2.439-5.45-5.449c0-1.549,0.65-2.944,1.688-3.936
			c-1.037-0.992-1.688-2.388-1.688-3.937s0.65-2.943,1.688-3.937C469.271,307.958,468.621,306.563,468.621,305.014z"/>
	</g>
</g>
<g id="text">
</g>
</svg>
