<?xml version="1.0" encoding="utf-8"?>
<!-- Generator: Adobe Illustrator 15.0.0, SVG Export Plug-In . SVG Version: 6.00 Build 0)  -->
<!DOCTYPE svg PUBLIC "-//W3C//DTD SVG 1.1//EN" "http://www.w3.org/Graphics/SVG/1.1/DTD/svg11.dtd">
<svg version="1.1" xmlns="http://www.w3.org/2000/svg" xmlns:xlink="http://www.w3.org/1999/xlink" x="0px" y="0px" viewBox="0 0 108 108" enable-background="new 0 0 108 108" xml:space="preserve">
<g id="Layer_2">
</g>
<g id="Layer_1">
	<g>
		<polygon fill="#72913C" points="39.824,15.36 41.071,4.701 42.319,15.36 		"/>
		<polygon fill="#72913C" points="36.839,17.585 33.026,7.554 39.051,16.434 		"/>
		<polygon fill="#72913C" points="43.119,16.458 49.085,7.538 45.339,17.594 		"/>
		<polygon fill="#72913C" points="39.824,56.465 41.071,67.124 42.319,56.465 		"/>
		<polygon fill="#72913C" points="36.839,54.24 33.026,64.271 39.051,55.391 		"/>
		<polygon fill="#72913C" points="43.119,55.367 49.085,64.288 45.339,54.231 		"/>
		<path fill="#72913C" d="M38.234,32.27c0-1.404-0.589-2.668-1.529-3.567c0.939-0.899,1.529-2.163,1.529-3.567
			c0-2.728-2.212-4.939-4.94-4.939H17.38c-0.522,0-1.024,0.082-1.496,0.232c-0.801-0.15-1.649-0.232-2.528-0.232
			c-4.85,0-8.781,2.457-8.781,5.488V45.99c0,3.031,3.931,5.488,8.781,5.488c0.879,0,1.727-0.082,2.528-0.232
			c0.472,0.15,0.974,0.232,1.496,0.232h15.914c2.728,0,4.94-2.211,4.94-4.939c0-1.403-0.589-2.668-1.529-3.567
			c0.939-0.899,1.529-2.164,1.529-3.567s-0.589-2.668-1.529-3.567C37.645,34.938,38.234,33.674,38.234,32.27z"/>
		<path fill="#72913C" d="M45.099,32.27c0-1.404,0.589-2.668,1.529-3.567c-0.939-0.899-1.529-2.163-1.529-3.567
			c0-2.728,2.212-4.939,4.939-4.939h15.915c0.521,0,1.023,0.082,1.496,0.232c0.801-0.15,1.648-0.232,2.528-0.232
			c4.85,0,8.78,2.457,8.78,5.488V45.99c0,3.031-3.931,5.488-8.78,5.488c-0.88,0-1.728-0.082-2.528-0.232
			c-0.473,0.15-0.975,0.232-1.496,0.232H50.039c-2.728,0-4.939-2.211-4.939-4.939c0-1.403,0.589-2.668,1.529-3.567
			c-0.939-0.899-1.529-2.164-1.529-3.567s0.589-2.668,1.529-3.567C45.688,34.938,45.099,33.674,45.099,32.27z"/>
	</g>
</g>
</svg>
