<?xml version="1.0" encoding="utf-8"?>
<svg version="1.1" id="Layer_1" xmlns="http://www.w3.org/2000/svg" xmlns:xlink="http://www.w3.org/1999/xlink" x="0px" y="0px" viewBox="0 0 612 792" enable-background="new 0 0 612 792" xml:space="preserve">
<g>
	<g>
		<defs>
			<filter id="Adobe_OpacityMaskFilter" filterUnits="userSpaceOnUse" x="181.75" y="495.422" width="142.565" height="83.043">
				<feColorMatrix  type="matrix" values="1 0 0 0 0  0 1 0 0 0  0 0 1 0 0  0 0 0 1 0"/>
			</filter>
		</defs>
		<mask maskUnits="userSpaceOnUse" x="181.75" y="495.422" width="142.565" height="83.043" id="SVGID_1_">
			<g filter="url(#Adobe_OpacityMaskFilter)">
				<g>
					<defs>
						<rect id="SVGID_2_" x="181.75" y="495.422" width="142.56" height="83.039"/>
					</defs>
					<clipPath id="SVGID_3_">
						<use xlink:href="#SVGID_2_"  overflow="visible"/>
					</clipPath>
					<g transform="matrix(1 0 0 1 1.525879e-05 0)" clip-path="url(#SVGID_3_)">
						
							<image overflow="visible" width="594" height="346" xlink:href="559350DF.jpg"  transform="matrix(0.24 0 0 0.24 181.75 495.4219)">
						</image>
					</g>
				</g>
			</g>
		</mask>
		<g mask="url(#SVGID_1_)">
			<g>
				<defs>
					<rect id="SVGID_4_" x="181.75" y="495.422" width="142.56" height="83.039"/>
				</defs>
				<clipPath id="SVGID_5_">
					<use xlink:href="#SVGID_4_"  overflow="visible"/>
				</clipPath>
				<polyline opacity="0.43" clip-path="url(#SVGID_5_)" points="181.75,495.422 324.315,495.422 324.315,578.465 181.75,578.465 
					181.75,495.422 				"/>
			</g>
		</g>
		<path fill="#FFFFFF" d="M192.51,497.182c0,0-9,0-9,9v53.428c0,0,0,9,9,9h113c0,0,9,0,9-9v-53.428c0,0,0-9-9-9H192.51z"/>
		<path fill="none" stroke="#6D6E71" d="M192.51,497.182c0,0-9,0-9,9v53.428c0,0,0,9,9,9h113c0,0,9,0,9-9v-53.428c0,0,0-9-9-9
			H192.51z"/>
	</g>
</g>
<g>
	<path fill="#72913C" d="M223.228,526.793c-1.552,0-2.557-1.096-2.557-2.465c0-1.399,1.035-2.465,2.618-2.465
		c1.583,0,2.556,1.065,2.587,2.465c0,1.369-1.004,2.465-2.618,2.465H223.228z M220.945,543.623v-14.881h4.625v14.881H220.945z"/>
</g>
<g>
	<path fill="#5C6495" d="M246.35,542.68c-1.431,0.487-4.139,1.156-6.848,1.156c-3.744,0-6.452-0.943-8.339-2.738
		c-1.856-1.796-2.892-4.475-2.892-7.486c0.031-6.818,4.992-10.713,11.718-10.713c2.647,0,4.687,0.517,5.691,0.973l-0.974,3.744
		c-1.126-0.518-2.496-0.883-4.749-0.883c-3.864,0-6.817,2.16-6.817,6.635c0,4.26,2.679,6.727,6.483,6.727
		c1.035,0,1.886-0.123,2.251-0.275v-4.321h-3.165v-3.621h7.639V542.68z"/>
	<path fill="#5C6495" d="M248.702,523.385c1.431-0.244,3.439-0.426,6.27-0.426c2.86,0,4.9,0.547,6.27,1.643
		c1.339,1.035,2.19,2.739,2.19,4.748s-0.638,3.743-1.887,4.869c-1.583,1.461-3.926,2.161-6.665,2.161
		c-0.608,0-1.156-0.03-1.582-0.122v7.365h-4.596V523.385z M253.297,532.697c0.395,0.092,0.852,0.123,1.552,0.123
		c2.466,0,3.987-1.249,3.987-3.318c0-1.887-1.309-3.014-3.651-3.014c-0.914,0-1.552,0.062-1.887,0.152V532.697z"/>
	<path fill="#5C6495" d="M265.266,538.846c1.217,0.639,3.165,1.277,5.144,1.277c2.13,0,3.256-0.882,3.256-2.221
		c0-1.279-0.974-2.01-3.438-2.861c-3.41-1.217-5.661-3.104-5.661-6.087c0-3.499,2.952-6.147,7.76-6.147
		c2.343,0,4.018,0.456,5.234,1.034l-1.034,3.714c-0.792-0.396-2.283-0.975-4.261-0.975c-2.008,0-2.982,0.943-2.982,1.979
		c0,1.309,1.126,1.887,3.804,2.891c3.622,1.34,5.295,3.227,5.295,6.117c0,3.439-2.617,6.361-8.248,6.361
		c-2.343,0-4.656-0.639-5.813-1.278L265.266,538.846z"/>
</g>
</svg>
