<svg viewBox="0 0 144 84" fill="none" xmlns="http://www.w3.org/2000/svg">
<path opacity="0.43" d="M0.75 0.421875H143.315V83.4649H0.75V0.421875Z" fill="black"/>
<path d="M11.51 2.18188C11.51 2.18188 2.51001 2.18188 2.51001 11.1819V64.6099C2.51001 64.6099 2.51001 73.6099 11.51 73.6099H124.51C124.51 73.6099 133.51 73.6099 133.51 64.6099V11.1819C133.51 11.1819 133.51 2.18188 124.51 2.18188H11.51Z" fill="white"/>
<path d="M11.51 2.18188C11.51 2.18188 2.51001 2.18188 2.51001 11.1819V64.6099C2.51001 64.6099 2.51001 73.6099 11.51 73.6099H124.51C124.51 73.6099 133.51 73.6099 133.51 64.6099V11.1819C133.51 11.1819 133.51 2.18188 124.51 2.18188H11.51Z" stroke="#6D6E71"/>
<path d="M42.2279 31.7931C40.6759 31.7931 39.6709 30.6971 39.6709 29.3281C39.6709 27.9291 40.7059 26.863 42.2889 26.863C43.8719 26.863 44.8449 27.9281 44.8759 29.3281C44.8759 30.6971 43.8719 31.7931 42.2579 31.7931H42.2279ZM39.9449 48.623V33.7421H44.5699V48.623H39.9449Z" fill="#72913C"/>
<path d="M65.35 47.6802C63.919 48.1672 61.211 48.8362 58.502 48.8362C54.758 48.8362 52.05 47.8932 50.163 46.0982C48.307 44.3022 47.271 41.6232 47.271 38.6122C47.302 31.7942 52.263 27.8992 58.989 27.8992C61.636 27.8992 63.676 28.4162 64.68 28.8722L63.706 32.6162C62.58 32.0982 61.21 31.7332 58.957 31.7332C55.093 31.7332 52.14 33.8932 52.14 38.3682C52.14 42.6282 54.819 45.0952 58.623 45.0952C59.658 45.0952 60.509 44.9722 60.874 44.8202V40.4992H57.709V36.8782H65.348V47.6802H65.35Z" fill="#5C6495"/>
<path d="M67.7019 28.385C69.1329 28.141 71.1409 27.959 73.9719 27.959C76.8319 27.959 78.8719 28.506 80.2419 29.602C81.5809 30.637 82.4319 32.341 82.4319 34.35C82.4319 36.359 81.7939 38.093 80.5449 39.219C78.9619 40.68 76.6189 41.38 73.8799 41.38C73.2719 41.38 72.7239 41.35 72.2979 41.258V48.623H67.7019V28.385V28.385ZM72.2969 37.697C72.6919 37.789 73.1489 37.82 73.8489 37.82C76.3149 37.82 77.8359 36.571 77.8359 34.502C77.8359 32.615 76.5269 31.488 74.1849 31.488C73.2709 31.488 72.6329 31.55 72.2979 31.64V37.697H72.2969Z" fill="#5C6495"/>
<path d="M84.266 43.8461C85.483 44.4851 87.431 45.1231 89.41 45.1231C91.54 45.1231 92.666 44.2411 92.666 42.9021C92.666 41.6231 91.692 40.8921 89.228 40.0411C85.818 38.8241 83.567 36.9371 83.567 33.9541C83.567 30.4551 86.519 27.8071 91.327 27.8071C93.67 27.8071 95.345 28.2631 96.561 28.8411L95.527 32.5551C94.735 32.1591 93.244 31.5801 91.266 31.5801C89.258 31.5801 88.284 32.5231 88.284 33.5591C88.284 34.8681 89.41 35.4461 92.088 36.4501C95.71 37.7901 97.383 39.6771 97.383 42.5671C97.383 46.0061 94.766 48.9281 89.135 48.9281C86.792 48.9281 84.479 48.2891 83.322 47.6501L84.266 43.8461Z" fill="#5C6495"/>
</svg>
