<?xml version="1.0" encoding="utf-8"?>
<svg version="1.1" id="Layer_1" xmlns="http://www.w3.org/2000/svg" xmlns:xlink="http://www.w3.org/1999/xlink" x="0px" y="0px" viewBox="0 0 612 792" enable-background="new 0 0 612 792" xml:space="preserve">
<g>
	<path fill="#72913C" d="M207.892,230.139c-1.224,0-2.016-0.864-2.016-1.944c0-1.104,0.816-1.944,2.064-1.944
		c1.248,0,2.016,0.84,2.04,1.944c0,1.08-0.792,1.944-2.064,1.944H207.892z M206.092,243.412v-11.737h3.648v11.737H206.092z"/>
</g>
<g>
	<path fill="#5C6495" d="M226.127,242.667c-1.128,0.384-3.264,0.912-5.4,0.912c-2.952,0-5.088-0.744-6.577-2.16
		c-1.464-1.416-2.28-3.528-2.28-5.904c0.024-5.376,3.937-8.449,9.241-8.449c2.088,0,3.696,0.408,4.488,0.768l-0.768,2.952
		c-0.888-0.408-1.968-0.696-3.745-0.696c-3.048,0-5.376,1.704-5.376,5.232c0,3.36,2.112,5.305,5.113,5.305
		c0.816,0,1.488-0.096,1.776-0.216v-3.408h-2.496v-2.856h6.024V242.667z"/>
	<path fill="#5C6495" d="M227.982,227.45c1.128-0.192,2.712-0.336,4.945-0.336c2.256,0,3.864,0.432,4.944,1.296
		c1.056,0.816,1.728,2.16,1.728,3.745c0,1.584-0.504,2.952-1.488,3.84c-1.248,1.152-3.096,1.704-5.256,1.704
		c-0.48,0-0.912-0.024-1.248-0.096v5.809h-3.625V227.45z M231.606,234.795c0.312,0.072,0.672,0.096,1.224,0.096
		c1.944,0,3.144-0.984,3.144-2.616c0-1.488-1.032-2.376-2.88-2.376c-0.72,0-1.224,0.048-1.488,0.12V234.795z"/>
	<path fill="#5C6495" d="M241.046,239.643c0.96,0.504,2.496,1.008,4.057,1.008c1.68,0,2.568-0.696,2.568-1.752
		c0-1.008-0.768-1.584-2.712-2.256c-2.688-0.96-4.464-2.448-4.464-4.8c0-2.76,2.328-4.849,6.12-4.849
		c1.848,0,3.168,0.36,4.128,0.816l-0.816,2.929c-0.624-0.312-1.8-0.769-3.36-0.769c-1.584,0-2.352,0.744-2.352,1.561
		c0,1.032,0.888,1.488,3,2.28c2.856,1.056,4.176,2.544,4.176,4.824c0,2.712-2.064,5.017-6.504,5.017
		c-1.848,0-3.672-0.504-4.584-1.008L241.046,239.643z"/>
</g>
</svg>
