<svg width="47" height="18" viewBox="0 0 47 18" fill="none" xmlns="http://www.w3.org/2000/svg">
<path d="M2.89197 4.13898C1.66797 4.13898 0.875977 3.27498 0.875977 2.19498C0.875977 1.09098 1.69197 0.250977 2.93997 0.250977C4.18797 0.250977 4.95597 1.09098 4.97997 2.19498C4.97997 3.27498 4.18797 4.13898 2.91597 4.13898H2.89197ZM1.09196 17.412V5.67497H4.73997V17.412H1.09196Z" fill="#72913C"/>
<path d="M21.1271 16.6669C19.9991 17.0509 17.8631 17.5789 15.7271 17.5789C12.7751 17.5789 10.6391 16.8349 9.15012 15.4189C7.68612 14.0029 6.87012 11.8909 6.87012 9.51492C6.89412 4.13892 10.8071 1.06592 16.1111 1.06592C18.1991 1.06592 19.8071 1.47392 20.5991 1.83392L19.8311 4.78592C18.9431 4.37792 17.8631 4.08992 16.0861 4.08992C13.0381 4.08992 10.7101 5.79393 10.7101 9.32193C10.7101 12.6819 12.8221 14.6269 15.8231 14.6269C16.6391 14.6269 17.3111 14.5309 17.5991 14.4109V11.0029H15.1031V8.14693H21.1271V16.6669V16.6669Z" fill="#5C6495"/>
<path d="M22.9822 1.44977C24.1102 1.25777 25.6942 1.11377 27.9272 1.11377C30.1832 1.11377 31.7912 1.54577 32.8712 2.40977C33.9272 3.22577 34.5992 4.56977 34.5992 6.15477C34.5992 7.73877 34.0952 9.10677 33.1112 9.99477C31.8632 11.1468 30.0152 11.6988 27.8552 11.6988C27.3752 11.6988 26.9432 11.6748 26.6072 11.6028V17.4118H22.9822V1.44977ZM26.6062 8.79477C26.9182 8.86677 27.2782 8.89078 27.8302 8.89078C29.7742 8.89078 30.9742 7.90676 30.9742 6.27477C30.9742 4.78676 29.9422 3.89877 28.0942 3.89877C27.3742 3.89877 26.8702 3.94677 26.6062 4.01877V8.79477Z" fill="#5C6495"/>
<path d="M36.0462 13.6429C37.0062 14.1469 38.5422 14.6509 40.1032 14.6509C41.7832 14.6509 42.6712 13.9549 42.6712 12.8989C42.6712 11.8909 41.9032 11.3149 39.9592 10.6429C37.2712 9.6829 35.4952 8.1949 35.4952 5.8429C35.4952 3.0829 37.8232 0.993896 41.6152 0.993896C43.4632 0.993896 44.7832 1.35389 45.7432 1.80989L44.9272 4.73889C44.3032 4.42689 43.1272 3.96989 41.5672 3.96989C39.9832 3.96989 39.2152 4.7139 39.2152 5.5309C39.2152 6.5629 40.1032 7.0189 42.2152 7.8109C45.0712 8.8669 46.3912 10.3549 46.3912 12.6349C46.3912 15.3469 44.3272 17.6519 39.8872 17.6519C38.0392 17.6519 36.2152 17.1479 35.3032 16.6439L36.0462 13.6429Z" fill="#5C6495"/>
</svg>
