<svg viewBox="0 0 126 42" fill="none" xmlns="http://www.w3.org/2000/svg">
<path d="M39.5659 15.107C39.5659 15.107 -84.1431 -0.290008 119.857 2.28099" stroke="#72913C" stroke-width="3"/>
<path d="M37.5659 26.1071C37.5659 26.1071 -14.2341 19.6071 6.97789 15.4771" stroke="#72913C" stroke-width="3.0001"/>
<path d="M37.5659 37.6171C37.5659 37.6171 -14.2341 31.1171 6.97789 26.9871" stroke="#72913C" stroke-width="3.0001"/>
<path d="M111.562 33.6191L119.27 21.8621L116.314 33.6611L111.562 33.6191ZM114.453 41.8871L121.032 41.9451L125.457 15.7791L118.574 15.7181L99.8909 41.7601L106.189 41.8151L108.923 37.7681L115.43 37.8251L114.453 41.8871ZM99.3099 19.7231L99.9429 19.7281C100.461 19.7321 100.918 19.7881 101.313 19.8931C102.328 20.1681 102.917 20.6761 103.083 21.4141C103.232 22.1151 103.166 23.0081 102.881 24.0911C102.594 25.1761 102.015 26.7171 101.139 28.7181C100.618 29.9081 100.047 31.1051 99.4259 32.3061C98.6459 33.8381 97.7359 35.0691 96.6989 36.0001C96.1259 36.5181 95.4299 36.9171 94.6109 37.2031C93.7929 37.4891 92.9599 37.6271 92.1129 37.6201L91.4809 37.6151L99.3099 19.7231ZM83.3989 41.6171L91.2489 41.6851C94.5279 41.7131 97.4089 40.8291 99.8899 39.0301C102.942 36.8191 105.537 33.2721 107.673 28.3911C108.654 26.1491 109.265 24.2521 109.505 22.7011C109.745 21.1521 109.636 19.8211 109.183 18.7101C108.767 17.6881 107.978 16.9391 106.814 16.4661C105.65 15.9901 104.022 15.7441 101.929 15.7261L94.7579 15.6641L83.3989 41.6171ZM78.9679 19.6981L80.0219 19.7081C82.8979 19.7331 83.8319 20.9001 82.8209 23.2081C81.8059 25.5291 79.8589 26.6771 76.9819 26.6521L75.9289 26.6421L78.9679 19.6981ZM63.1229 41.4401L69.4289 41.4951L74.6449 29.5751L74.9769 41.5431L82.0459 41.6051L81.2709 29.6331C82.2929 29.4131 83.2749 29.0541 84.2179 28.5521C86.6179 27.3031 88.3289 25.5141 89.3489 23.1841C90.4669 20.6271 90.4259 18.6951 89.2259 17.3891C88.1149 16.1981 85.8089 15.5861 82.3089 15.5561L74.4809 15.4881L63.1229 41.4401ZM62.9369 21.9491C62.5879 23.4301 61.7779 25.6241 60.5069 28.5301C59.4109 31.0321 58.3569 33.0981 57.3449 34.7251C56.1999 36.5801 54.8659 37.5011 53.3389 37.4871C51.7959 37.4741 51.2579 36.5381 51.7259 34.6761C52.1499 33.0561 52.9379 30.9311 54.0889 28.3031C55.2559 25.6371 56.3319 23.5021 57.3179 21.9001C58.4769 20.0451 59.8039 19.1241 61.2989 19.1371C62.8409 19.1501 63.3869 20.0891 62.9369 21.9491ZM58.4579 15.5831C56.2949 16.4051 54.2899 17.8911 52.4399 20.0401C50.8979 21.8481 49.2979 24.6411 47.6449 28.4221C46.7109 30.5541 46.0109 32.5281 45.5459 34.3461C45.0609 36.2771 45.1589 38.0041 45.8409 39.5241C46.5869 41.1481 48.4449 41.9741 51.4109 42.0001C55.5029 42.0351 59.0929 40.2591 62.1839 36.6681C63.7429 34.8611 65.3249 32.1241 66.9299 28.4571C67.8899 26.2621 68.6119 24.2371 69.0949 22.3821C69.5909 20.4251 69.4919 18.6981 68.7989 17.2021C68.0219 15.5781 66.2269 14.7541 63.4169 14.7291C61.6219 14.7141 59.9679 14.9991 58.4579 15.5831Z" fill="#5C6495"/>
</svg>
