<svg viewBox="0 0 126 43" fill="none" xmlns="http://www.w3.org/2000/svg">
<path d="M39.566 15.107C39.566 15.107 -84.143 -0.290008 119.857 2.28099" stroke="#72913C" stroke-width="3"/>
<path d="M37.566 26.107C37.566 26.107 -14.234 19.607 6.97801 15.476" stroke="#72913C" stroke-width="3.0001"/>
<path d="M37.566 37.617C37.566 37.617 -14.234 31.117 6.97801 26.987" stroke="#72913C" stroke-width="3.0001"/>
<path d="M111.562 33.619L119.27 21.862L116.314 33.661L111.562 33.619ZM114.453 41.887L121.032 41.946L125.457 15.78L118.574 15.718L99.891 41.76L106.189 41.816L108.923 37.768L115.43 37.826L114.453 41.887ZM99.31 19.723L99.943 19.728C100.461 19.733 100.918 19.789 101.313 19.893C102.328 20.168 102.917 20.676 103.083 21.414C103.232 22.115 103.166 23.008 102.881 24.091C102.594 25.176 102.015 26.717 101.139 28.718C100.618 29.908 100.047 31.106 99.426 32.306C98.646 33.838 97.736 35.07 96.699 36C96.126 36.518 95.43 36.917 94.611 37.203C93.793 37.489 92.96 37.627 92.113 37.62L91.481 37.615L99.31 19.723ZM83.399 41.617L91.249 41.684C94.528 41.712 97.409 40.829 99.89 39.03C102.942 36.819 105.537 33.272 107.673 28.39C108.654 26.149 109.265 24.251 109.505 22.701C109.745 21.152 109.636 19.821 109.183 18.71C108.767 17.688 107.978 16.939 106.814 16.466C105.65 15.99 104.022 15.744 101.929 15.726L94.758 15.664L83.399 41.617ZM78.968 19.698L80.022 19.708C82.898 19.733 83.832 20.9 82.821 23.208C81.806 25.529 79.859 26.677 76.982 26.652L75.929 26.641L78.968 19.698ZM63.123 41.44L69.429 41.495L74.645 29.575L74.977 41.543L82.046 41.605L81.271 29.632C82.293 29.412 83.275 29.053 84.218 28.551C86.618 27.302 88.329 25.513 89.349 23.183C90.467 20.626 90.426 18.695 89.226 17.388C88.115 16.198 85.809 15.585 82.309 15.555L74.481 15.488L63.123 41.44ZM62.937 21.949C62.588 23.429 61.778 25.624 60.507 28.53C59.411 31.032 58.357 33.097 57.345 34.724C56.2 36.579 54.866 37.5 53.339 37.487C51.796 37.473 51.258 36.538 51.726 34.675C52.15 33.055 52.938 30.93 54.089 28.302C55.256 25.636 56.332 23.501 57.318 21.9C58.477 20.045 59.804 19.124 61.299 19.136C62.841 19.15 63.387 20.089 62.937 21.949ZM58.458 15.583C56.295 16.405 54.29 17.891 52.44 20.04C50.898 21.848 49.298 24.641 47.645 28.422C46.711 30.554 46.011 32.528 45.546 34.346C45.061 36.278 45.159 38.004 45.841 39.525C46.587 41.149 48.445 41.974 51.411 42.001C55.503 42.036 59.093 40.26 62.184 36.669C63.743 34.862 65.325 32.125 66.93 28.458C67.89 26.263 68.612 24.238 69.095 22.383C69.591 20.426 69.492 18.699 68.799 17.203C68.022 15.579 66.227 14.755 63.417 14.73C61.622 14.714 59.968 14.999 58.458 15.583Z" fill="white"/>
</svg>
