<?xml version="1.0" encoding="utf-8"?>
<svg version="1.1" id="Layer_1" xmlns="http://www.w3.org/2000/svg" xmlns:xlink="http://www.w3.org/1999/xlink" x="0px" y="0px" viewBox="0 0 612 792" enable-background="new 0 0 612 792" xml:space="preserve">
<g>
	<path fill="none" stroke="#72913C" stroke-width="3" d="M100.566,354.107c0,0-123.709-15.397,80.291-12.826"/>
	<path fill="none" stroke="#72913C" stroke-width="3.0001" d="M98.566,365.107c0,0-51.8-6.5-30.588-10.631"/>
	<path fill="none" stroke="#72913C" stroke-width="3.0001" d="M98.566,376.617c0,0-51.8-6.5-30.588-10.63"/>
</g>
<g>
	<path fill="#FFFFFF" d="M172.562,372.619l7.708-11.757l-2.956,11.799L172.562,372.619z M175.453,380.887l6.579,0.059l4.425-26.166
		l-6.883-0.062l-18.683,26.042l6.298,0.056l2.734-4.048l6.507,0.058L175.453,380.887z M160.31,358.723l0.633,0.005
		c0.518,0.005,0.975,0.061,1.37,0.165c1.015,0.275,1.604,0.783,1.77,1.521c0.149,0.701,0.083,1.594-0.202,2.677
		c-0.287,1.085-0.866,2.626-1.742,4.627c-0.521,1.19-1.092,2.388-1.713,3.588c-0.78,1.532-1.69,2.764-2.727,3.694
		c-0.573,0.518-1.269,0.917-2.088,1.203c-0.818,0.286-1.651,0.424-2.498,0.417l-0.632-0.005L160.31,358.723z M144.399,380.617
		l7.85,0.067c3.279,0.028,6.16-0.855,8.641-2.654c3.052-2.211,5.647-5.758,7.783-10.64c0.981-2.241,1.592-4.139,1.832-5.689
		c0.24-1.549,0.131-2.88-0.322-3.991c-0.416-1.022-1.205-1.771-2.369-2.244c-1.164-0.476-2.792-0.722-4.885-0.74l-7.171-0.062
		L144.399,380.617z M139.968,358.698l1.054,0.01c2.876,0.025,3.81,1.192,2.799,3.5c-1.015,2.321-2.962,3.469-5.839,3.444
		l-1.053-0.011L139.968,358.698z M124.123,380.44l6.306,0.055l5.216-11.92l0.332,11.968l7.069,0.062l-0.775-11.973
		c1.022-0.22,2.004-0.579,2.947-1.081c2.4-1.249,4.111-3.038,5.131-5.368c1.118-2.557,1.077-4.488-0.123-5.795
		c-1.111-1.19-3.417-1.803-6.917-1.833l-7.828-0.067L124.123,380.44z M123.937,360.949c-0.349,1.48-1.159,3.675-2.43,6.581
		c-1.096,2.502-2.15,4.567-3.162,6.194c-1.145,1.855-2.479,2.776-4.006,2.763c-1.543-0.014-2.081-0.949-1.613-2.812
		c0.424-1.62,1.212-3.745,2.363-6.373c1.167-2.666,2.243-4.801,3.229-6.402c1.159-1.855,2.486-2.776,3.981-2.764
		C123.841,358.15,124.387,359.089,123.937,360.949L123.937,360.949z M119.458,354.583c-2.163,0.822-4.168,2.308-6.018,4.457
		c-1.542,1.808-3.142,4.601-4.795,8.382c-0.934,2.132-1.634,4.106-2.099,5.924c-0.485,1.932-0.387,3.658,0.295,5.179
		c0.746,1.624,2.604,2.449,5.57,2.476c4.092,0.035,7.682-1.741,10.773-5.332c1.559-1.807,3.141-4.544,4.746-8.211
		c0.96-2.195,1.682-4.22,2.165-6.075c0.496-1.957,0.397-3.684-0.296-5.18c-0.777-1.624-2.572-2.448-5.382-2.473
		C122.622,353.714,120.968,353.999,119.458,354.583L119.458,354.583z"/>
</g>
</svg>
